<svg xmlns="http://www.w3.org/2000/svg" xmlns:xlink="http://www.w3.org/1999/xlink" viewBox="0,0,256,256" width="50px" height="50px" fill-rule="nonzero"><g fill="#ed4461" fill-rule="nonzero" stroke="none" stroke-width="1" stroke-linecap="butt" stroke-linejoin="miter" stroke-miterlimit="10" stroke-dasharray="" stroke-dashoffset="0" font-family="none" font-weight="none" font-size="none" text-anchor="none" style="mix-blend-mode: normal"><g transform="scale(5.12,5.12)"><path d="M29,8.53125c-5.21484,0 -9.62891,3.12109 -11.75,7.53125c-1.12891,-0.77734 -2.4375,-1.34375 -3.90625,-1.34375c-3.72656,0 -6.69922,2.94922 -6.90625,6.625c-3.72656,1.34375 -6.4375,4.82031 -6.4375,9c0,5.32813 4.32813,9.65625 9.65625,9.65625h31.4375c4.90625,0 8.90625,-4 8.90625,-8.90625c0,-4.55078 -3.49219,-8.16797 -7.90625,-8.6875c0.01563,-0.24219 0.0625,-0.46875 0.0625,-0.71875c0,-7.25 -5.90625,-13.15625 -13.15625,-13.15625zM29,10.53125c6.17188,0 11.15625,4.98828 11.15625,11.15625c0,0.45703 -0.03516,0.90625 -0.09375,1.375l-0.15625,1.125h1.1875c3.82422,0 6.90625,3.08203 6.90625,6.90625c0,3.82422 -3.08203,6.90625 -6.90625,6.90625h-31.4375c-4.25,0 -7.65625,-3.41016 -7.65625,-7.65625c0,-3.53516 2.38281,-6.51172 5.625,-7.40625l0.75,-0.1875l-0.03125,-0.8125c-0.00391,-0.14062 0,-0.21094 0,-0.21875c0,-2.77734 2.22266,-5 5,-5c1.39063,0 2.65625,0.55859 3.5625,1.46875l1.09375,1.125l0.53125,-1.46875c1.57422,-4.25 5.66016,-7.3125 10.46875,-7.3125z"></path></g></g></svg>