<svg xmlns="http://www.w3.org/2000/svg" xmlns:xlink="http://www.w3.org/1999/xlink" viewBox="0,0,256,256" width="128px" height="128px" fill-rule="nonzero"><g fill="#ed4461" fill-rule="nonzero" stroke="none" stroke-width="1" stroke-linecap="butt" stroke-linejoin="miter" stroke-miterlimit="10" stroke-dasharray="" stroke-dashoffset="0" font-family="none" font-weight="none" font-size="none" text-anchor="none" style="mix-blend-mode: normal"><g transform="scale(2,2)"><path d="M99,59h-2v-2c0,-18.2 -14.8,-33 -33,-33c-18.2,0 -33,14.8 -33,33v2h-2c-12.7,0 -23,10.3 -23,23c0,12.7 10.3,23 23,23h70c12.7,0 23,-10.3 23,-23c0,-12.7 -10.3,-23 -23,-23zM99,99h-70c-9.4,0 -17,-7.6 -17,-17c0,-9.4 7.6,-17 17,-17h5c1.7,0 3,-1.3 3,-3v-5c0,-14.9 12.1,-27 27,-27c14.9,0 27,12.1 27,27v5c0,1.7 1.3,3 3,3h5c9.4,0 17,7.6 17,17c0,9.4 -7.6,17 -17,17z"></path></g></g></svg>