<svg xmlns="http://www.w3.org/2000/svg" xmlns:xlink="http://www.w3.org/1999/xlink" viewBox="0,0,256,256" width="128px" height="128px" fill-rule="nonzero"><g fill="none" fill-rule="nonzero" stroke="none" stroke-width="1" stroke-linecap="butt" stroke-linejoin="miter" stroke-miterlimit="10" stroke-dasharray="" stroke-dashoffset="0" font-family="none" font-weight="none" font-size="none" text-anchor="none" style="mix-blend-mode: normal"><g transform="scale(2,2)"><path d="M97,34h-66c-14.9,0 -27,12.1 -27,27v53h27h27h12h27h27v-53c0,-14.9 -12.1,-27 -27,-27z" fill-opacity="0" fill="#ed4461"></path><path d="M32,105h-14c-1.7,0 -3,-1.3 -3,-3c0,-1.7 1.3,-3 3,-3h14c1.7,0 3,1.3 3,3c0,1.7 -1.3,3 -3,3zM45,105c-0.2,0 -0.4,0 -0.6,-0.1c-0.2,0 -0.4,-0.1 -0.6,-0.2c-0.2,-0.1 -0.3,-0.2 -0.5,-0.3c-0.2,-0.1 -0.3,-0.2 -0.4,-0.4c-0.6,-0.6 -0.9,-1.3 -0.9,-2.1c0,-0.2 0,-0.4 0.1,-0.6c0,-0.2 0.1,-0.4 0.2,-0.6c0.1,-0.2 0.2,-0.3 0.3,-0.5c0.1,-0.2 0.2,-0.3 0.4,-0.4c0.2,-0.1 0.3,-0.3 0.4,-0.4c0.2,-0.1 0.3,-0.2 0.5,-0.3c0.2,-0.1 0.4,-0.1 0.6,-0.2c1,-0.2 2,0.1 2.7,0.8c0.1,0.1 0.3,0.3 0.4,0.4c0.1,0.2 0.2,0.3 0.3,0.5c0.1,0.2 0.1,0.4 0.2,0.6c0,0.2 0.1,0.4 0.1,0.6c0,0.8 -0.3,1.6 -0.9,2.1c-0.7,0.8 -1.5,1.1 -2.3,1.1z" fill="#ed4461"></path><path d="M100,31.2v-12.2h17c1.7,0 3,-1.3 3,-3v-12c0,-1.7 -1.3,-3 -3,-3h-20c-1.7,0 -3,1.3 -3,3v46.4c-4.6,1.3 -8,5.5 -8,10.6c0,6.1 4.9,11 11,11c6.1,0 11,-4.9 11,-11c0,-5 -3.4,-9.3 -8,-10.6v-13.2c11.8,1.5 21,11.6 21,23.8v50h-60v-50c0,-9.8 -4.7,-18.5 -12,-24h35c1.7,0 3,-1.3 3,-3c0,-1.7 -1.3,-3 -3,-3h-53c-16.5,0 -30,13.5 -30,30v53c0,1.7 1.3,3 3,3h120c1.7,0 3,-1.3 3,-3v-53c0,-15.5 -11.9,-28.3 -27,-29.8zM102,61c0,2.8 -2.2,5 -5,5c-2.8,0 -5,-2.2 -5,-5c0,-2.8 2.2,-5 5,-5c2.8,0 5,2.2 5,5zM55,111h-48v-50c0,-13.2 10.8,-24 24,-24c13.2,0 24,10.8 24,24z" fill="#ed4461"></path></g></g></svg>