<svg xmlns="http://www.w3.org/2000/svg" xmlns:xlink="http://www.w3.org/1999/xlink" viewBox="0,0,256,256" width="80px" height="80px" fill-rule="nonzero"><g fill="#ed4461" fill-rule="nonzero" stroke="none" stroke-width="1" stroke-linecap="butt" stroke-linejoin="miter" stroke-miterlimit="10" stroke-dasharray="" stroke-dashoffset="0" font-family="none" font-weight="none" font-size="none" text-anchor="none" style="mix-blend-mode: normal"><g transform="scale(3.2,3.2)"><path d="M40,14.01563c-0.51172,0 -1.02344,0.09375 -1.50781,0.28125l-36.92187,14.40625c-0.94531,0.37109 -1.57031,1.28516 -1.57031,2.29688v1h0.3125c0.26172,0.56641 0.65234,1.05859 1.25781,1.29688l4.42969,1.72656v25.24609c-0.61719,0.35938 -1,1.01563 -1,1.73047c0,0.17578 0.02344,0.35156 0.07031,0.51953c-1.22656,0.6875 -2.07031,1.98438 -2.07031,3.48047c0,0.71484 0.23828,1.37109 0.53516,2.15234c0.29688,0.77734 0.68359,1.61719 1.06641,2.40625c0.76563,1.57422 1.52734,2.92969 1.52734,2.92969l0.87109,1.55469l0.87109,-1.55469c0,0 0.76172,-1.35547 1.52734,-2.92969c0.38281,-0.78906 0.76953,-1.62891 1.06641,-2.40625c0.29688,-0.78125 0.53516,-1.4375 0.53516,-2.15234c0,-1.49609 -0.84375,-2.79297 -2.07031,-3.48047c0.04688,-0.16797 0.07031,-0.34375 0.07031,-0.51953c0,-0.71484 -0.38281,-1.375 -1,-1.73047v-24.46484l10,3.89844v10.29688c0,0.62891 0.34375,1.16406 0.74609,1.53906c0.40234,0.375 0.90234,0.66406 1.49219,0.92969c1.1875,0.53516 2.77734,0.97266 4.72656,1.34375c3.89063,0.73828 9.18359,1.1875 15.03516,1.1875c5.85156,0 11.14453,-0.44922 15.03516,-1.1875c1.94922,-0.37109 3.53906,-0.80859 4.72656,-1.34375c0.58984,-0.26562 1.08984,-0.55469 1.49219,-0.92969c0.40234,-0.375 0.74609,-0.91016 0.74609,-1.53906v-10.29687l16.43359,-6.40625c0.60156,-0.23828 0.99219,-0.73047 1.25391,-1.29687h0.3125v-1c0,-1.01172 -0.625,-1.92578 -1.56641,-2.29687l-36.92578,-14.40625c-0.48437,-0.1875 -0.99609,-0.28125 -1.50781,-0.28125zM40,16.01563c0.26563,0 0.53125,0.04688 0.78125,0.14453l36.92188,14.40625c0.18359,0.07422 0.29688,0.23828 0.29688,0.43359c0,0.19531 -0.11328,0.35938 -0.29687,0.43359l-15.70312,6.125v-1.24609c0,-1.21875 -0.73828,-2.32812 -1.875,-2.78125c-2.8125,-1.13281 -9.97656,-3.53125 -20.125,-3.53125c-10.14844,0 -17.3125,2.39844 -20.125,3.52734c-1.13281,0.45703 -1.875,1.56641 -1.875,2.78516v1.24609l-15.70312,-6.125c-0.18359,-0.07422 -0.29687,-0.23828 -0.29687,-0.43359c0,-0.19531 0.11328,-0.35937 0.29688,-0.43359l36.92188,-14.40625c0.25,-0.09766 0.51563,-0.14453 0.78125,-0.14453zM40,18c-0.55078,0 -1,0.44922 -1,1c0,0.55078 0.44922,1 1,1c0.55078,0 1,-0.44922 1,-1c0,-0.55078 -0.44922,-1 -1,-1zM40,22c-0.55078,0 -1,0.44922 -1,1c0,0.55078 0.44922,1 1,1c0.55078,0 1,-0.44922 1,-1c0,-0.55078 -0.44922,-1 -1,-1zM40,26c-0.55078,0 -1,0.44922 -1,1c0,0.55078 0.44922,1 1,1c0.55078,0 1,-0.44922 1,-1c0,-0.55078 -0.44922,-1 -1,-1zM40,32c9.83203,0 16.74609,2.32813 19.37891,3.38672c0.37891,0.15234 0.62109,0.50781 0.62109,0.92578v11.34375c-0.08203,-0.03906 -0.15234,-0.08594 -0.23828,-0.125c-1.1875,-0.53516 -2.77734,-0.97266 -4.72656,-1.34375c-3.89062,-0.73828 -9.18359,-1.1875 -15.03516,-1.1875c-5.85156,0 -11.14453,0.44922 -15.03516,1.1875c-1.94922,0.37109 -3.53906,0.80859 -4.72656,1.34375c-0.08594,0.03906 -0.15625,0.08594 -0.23828,0.125v-11.34375c0,-0.42187 0.23828,-0.77344 0.62109,-0.92578c2.63281,-1.05859 9.54688,-3.38672 19.37891,-3.38672zM40,47c5.74609,0 10.95313,0.44922 14.66016,1.15625c1.85547,0.35156 3.33984,0.77734 4.27734,1.19922c0.47266,0.21094 0.80078,0.42578 0.95313,0.57031c0.05078,0.04297 0.05469,0.05469 0.07031,0.07422c-0.01562,0.01953 -0.01953,0.03125 -0.07031,0.07422c-0.15234,0.14453 -0.48047,0.35938 -0.95312,0.57031c-0.9375,0.42188 -2.42187,0.84766 -4.27734,1.19922c-3.70703,0.70703 -8.91406,1.15625 -14.66016,1.15625c-5.74609,0 -10.95312,-0.44922 -14.66016,-1.15625c-1.85547,-0.35156 -3.33984,-0.77734 -4.27734,-1.19922c-0.47266,-0.21094 -0.80078,-0.42578 -0.95312,-0.57031c-0.05078,-0.04297 -0.05469,-0.05469 -0.07031,-0.07422c0.01563,-0.01953 0.01953,-0.03125 0.07031,-0.07422c0.15234,-0.14453 0.48047,-0.35937 0.95313,-0.57031c0.9375,-0.42187 2.42188,-0.84766 4.27734,-1.19922c3.70703,-0.70703 8.91406,-1.15625 14.66016,-1.15625zM7,64c1.11719,0 2,0.88281 2,2c0,0.11328 -0.13672,0.74609 -0.40234,1.4375c-0.26562,0.6875 -0.62891,1.49219 -0.99609,2.24609c-0.30078,0.61719 -0.35156,0.67969 -0.60156,1.15625c-0.25,-0.47656 -0.30078,-0.53906 -0.60156,-1.15625c-0.36719,-0.75391 -0.73047,-1.55859 -0.99609,-2.24609c-0.26562,-0.69141 -0.40234,-1.32422 -0.40234,-1.4375c0,-1.11719 0.88281,-2 2,-2z"></path></g></g></svg>