<svg xmlns="http://www.w3.org/2000/svg" xmlns:xlink="http://www.w3.org/1999/xlink" viewBox="0,0,256,256" width="80px" height="80px" fill-rule="nonzero"><g fill="#ed4461" fill-rule="nonzero" stroke="none" stroke-width="1" stroke-linecap="butt" stroke-linejoin="miter" stroke-miterlimit="10" stroke-dasharray="" stroke-dashoffset="0" font-family="none" font-weight="none" font-size="none" text-anchor="none" style="mix-blend-mode: normal"><g transform="scale(3.2,3.2)"><path d="M26,16v0.05078c-6.69922,0.51172 -12,6.11719 -12,12.94922v25.41797c-1.10547,0.44141 -2,1.32422 -2,2.58203c0,1.64453 1.35547,3 3,3h29.40234v11.66797h2v-11.66797h4.12891v11.66797h2v-11.66797h20.46875c1.64453,0 3,-1.35547 3,-3c0,-1.25781 -0.89453,-2.14062 -2,-2.58203v-25.41797c0,-7.16797 -5.83203,-13 -13,-13h-34c-0.16797,0 -0.33203,0.01953 -0.5,0.02734c-0.16797,-0.00781 -0.33203,-0.02734 -0.5,-0.02734zM32.89453,18h28.10547c6.08594,0 11,4.91406 11,11v26c0,0.55078 0.44922,1 1,1c0.56641,0 1,0.43359 1,1c0,0.56641 -0.43359,1 -1,1h-58c-0.56641,0 -1,-0.43359 -1,-1c0,-0.56641 0.43359,-1 1,-1c0.55078,0 1,-0.44922 1,-1v-26c0,-5.91797 4.64844,-10.71094 10.5,-10.97266c5.85156,0.26172 10.5,5.05469 10.5,10.97266v26c0,0.55078 0.44922,1 1,1c0.55078,0 1,-0.44922 1,-1v-26c0,-4.63281 -2.44531,-8.69531 -6.10547,-11zM50,28c-1.10547,0 -2,0.89453 -2,2c0,1.10547 0.89453,2 2,2c0.71484,0 1.37109,-0.38281 1.73047,-1h8.26953v7c0,0.55078 0.44922,1 1,1h5c0.55078,0 1,-0.44922 1,-1v-8c0,-0.55078 -0.44922,-1 -1,-1h-14.26953c-0.35547,-0.61719 -1.01562,-1 -1.73047,-1zM21,30c-0.35937,-0.00391 -0.69531,0.18359 -0.87891,0.49609c-0.17969,0.3125 -0.17969,0.69531 0,1.00781c0.18359,0.3125 0.51953,0.5 0.87891,0.49609h10c0.35938,0.00391 0.69531,-0.18359 0.87891,-0.49609c0.17969,-0.3125 0.17969,-0.69531 0,-1.00781c-0.18359,-0.3125 -0.51953,-0.5 -0.87891,-0.49609zM62,31h3v6h-3zM18,54c-0.55078,0 -1,0.44922 -1,1c0,0.55078 0.44922,1 1,1c0.55078,0 1,-0.44922 1,-1c0,-0.55078 -0.44922,-1 -1,-1zM22,54c-0.55078,0 -1,0.44922 -1,1c0,0.55078 0.44922,1 1,1c0.55078,0 1,-0.44922 1,-1c0,-0.55078 -0.44922,-1 -1,-1zM26,54c-0.55078,0 -1,0.44922 -1,1c0,0.55078 0.44922,1 1,1c0.55078,0 1,-0.44922 1,-1c0,-0.55078 -0.44922,-1 -1,-1zM30,54c-0.55078,0 -1,0.44922 -1,1c0,0.55078 0.44922,1 1,1c0.55078,0 1,-0.44922 1,-1c0,-0.55078 -0.44922,-1 -1,-1zM34,54c-0.55078,0 -1,0.44922 -1,1c0,0.55078 0.44922,1 1,1c0.55078,0 1,-0.44922 1,-1c0,-0.55078 -0.44922,-1 -1,-1zM42,54c-0.55078,0 -1,0.44922 -1,1c0,0.55078 0.44922,1 1,1c0.55078,0 1,-0.44922 1,-1c0,-0.55078 -0.44922,-1 -1,-1zM46,54c-0.55078,0 -1,0.44922 -1,1c0,0.55078 0.44922,1 1,1c0.55078,0 1,-0.44922 1,-1c0,-0.55078 -0.44922,-1 -1,-1zM50,54c-0.55078,0 -1,0.44922 -1,1c0,0.55078 0.44922,1 1,1c0.55078,0 1,-0.44922 1,-1c0,-0.55078 -0.44922,-1 -1,-1zM54,54c-0.55078,0 -1,0.44922 -1,1c0,0.55078 0.44922,1 1,1c0.55078,0 1,-0.44922 1,-1c0,-0.55078 -0.44922,-1 -1,-1zM58,54c-0.55078,0 -1,0.44922 -1,1c0,0.55078 0.44922,1 1,1c0.55078,0 1,-0.44922 1,-1c0,-0.55078 -0.44922,-1 -1,-1zM62,54c-0.55078,0 -1,0.44922 -1,1c0,0.55078 0.44922,1 1,1c0.55078,0 1,-0.44922 1,-1c0,-0.55078 -0.44922,-1 -1,-1zM66,54c-0.55078,0 -1,0.44922 -1,1c0,0.55078 0.44922,1 1,1c0.55078,0 1,-0.44922 1,-1c0,-0.55078 -0.44922,-1 -1,-1zM70,54c-0.55078,0 -1,0.44922 -1,1c0,0.55078 0.44922,1 1,1c0.55078,0 1,-0.44922 1,-1c0,-0.55078 -0.44922,-1 -1,-1z"></path></g></g></svg>