<svg xmlns="http://www.w3.org/2000/svg" xmlns:xlink="http://www.w3.org/1999/xlink" viewBox="0,0,256,256" width="40px" height="40px" fill-rule="nonzero"><g fill="none" fill-rule="nonzero" stroke="none" stroke-width="1" stroke-linecap="butt" stroke-linejoin="miter" stroke-miterlimit="10" stroke-dasharray="" stroke-dashoffset="0" font-family="none" font-weight="none" font-size="none" text-anchor="none" style="mix-blend-mode: normal"><g transform="scale(6.4,6.4)"><path d="M2,35.5c-0.276,0 -0.5,-0.224 -0.5,-0.5v-1.904l3.838,-9.596h29.323l3.838,9.596v1.904c0,0.276 -0.224,0.5 -0.5,0.5z" fill="#c6e1f9"></path><path d="M34.323,24l3.677,9.193v1.807h-36v-1.807l3.677,-9.193h28.646M35,23h-30l-4,10v2c0,0.552 0.448,1 1,1h36c0.552,0 1,-0.448 1,-1v-2l-4,-10z" fill="#fdb3af"></path><path d="M1.738,32.5l3.6,-9h29.324l3.6,9z" fill="#fededb"></path><path d="M34.323,24l3.2,8h-35.046l3.2,-8h28.646M35,23h-30l-4,10h38l-4,-10z" fill="#fdb3af"></path><path d="M5.5,23.5v-17.4c0,-0.882 0.673,-1.6 1.5,-1.6h26c0.827,0 1.5,0.718 1.5,1.6v17.4z" fill="#c6e1f9"></path><path d="M33,5c0.551,0 1,0.493 1,1.1v16.9h-28v-16.9c0,-0.607 0.449,-1.1 1,-1.1h26M33,4h-26c-1.105,0 -2,0.94 -2,2.1v17.9h30v-17.9c0,-1.16 -0.895,-2.1 -2,-2.1z" fill="#fdb3af"></path><path d="M25,28h-10l-1,4h12z" fill="#c6e1f9"></path><path d="M7,26h26l1,3h-28z" fill="#98ccfd"></path></g></g></svg>