<svg xmlns="http://www.w3.org/2000/svg" xmlns:xlink="http://www.w3.org/1999/xlink" viewBox="0,0,256,256" width="50px" height="50px" fill-rule="nonzero"><g fill="#ed4461" fill-rule="nonzero" stroke="none" stroke-width="1" stroke-linecap="butt" stroke-linejoin="miter" stroke-miterlimit="10" stroke-dasharray="" stroke-dashoffset="0" font-family="none" font-weight="none" font-size="none" text-anchor="none" style="mix-blend-mode: normal"><g transform="scale(5.12,5.12)"><path d="M5.95117,4.00586c-1.05161,0 -1.94531,0.861 -1.94531,1.92578v25.08008c0,0.35814 0.09565,0.68394 0.25195,0.96875c-0.06529,0.11311 -0.12434,0.23455 -0.16797,0.37305c-0.00065,0.00065 -0.0013,0.0013 -0.00195,0.00195l-2.82227,8.99609c-0.15836,0.1789 -0.24588,0.40951 -0.24609,0.64844v3c0,1.05949 0.85549,1.98047 1.9375,1.98047h44.08398c1.08197,0 1.93945,-0.92097 1.93945,-1.98047v-3c-0.00021,-0.23892 -0.08773,-0.46954 -0.24609,-0.64844l-2.82227,-8.99609c-0.04387,-0.14055 -0.10376,-0.26257 -0.16992,-0.37695c0.15578,-0.28447 0.25195,-0.6093 0.25195,-0.9668v-25.08008c0,-1.06478 -0.8937,-1.92578 -1.94531,-1.92578zM5.99414,5.99414h38.01172v25.01758c0,-0.0974 -0.07854,-0.00586 -0.00586,-0.00586h-4.89844c-0.03373,-0.00367 -0.06763,-0.00563 -0.10156,-0.00586h-28c-0.03328,0.00029 -0.06652,0.00225 -0.09961,0.00586h-4.90039c0.07272,0 -0.00586,-0.09158 -0.00586,0.00586zM5.77148,32.97266c0.00451,0.00049 0.00916,-0.00046 0.01367,0c0.00226,0.00769 0.00955,0.00431 0.01758,0.00195c0.06596,0.00613 0.1293,0.01953 0.19727,0.01953h3.7207l-0.69141,2.76367c-0.07454,0.29878 -0.00728,0.61525 0.18233,0.85789c0.18961,0.24264 0.48043,0.3844 0.78837,0.3843h30c0.30794,0.00011 0.59876,-0.14166 0.78837,-0.3843c0.18961,-0.24264 0.25687,-0.55911 0.18233,-0.85789l-0.69141,-2.76367h3.7207c0.06656,0 0.12871,-0.0117 0.19336,-0.01758c0.01051,0.00435 0.02078,0.00541 0.02344,-0.00391c0.00387,-0.00039 0.00786,0.00042 0.01172,0l2.52539,8.04688h-43.50781zM11.78125,33h26.4375l0.5,2h-27.4375zM21,38l-1,2h10l-1,-2zM2.98047,42.98047h44.03906v2.01953c0,0.04451 -0.00048,0.01953 0.02148,0.01953h-44.0625c0.00101,-0.00246 0.00195,-0.00361 0.00195,-0.01953z"></path></g></g></svg>