<svg xmlns="http://www.w3.org/2000/svg" xmlns:xlink="http://www.w3.org/1999/xlink" viewBox="0,0,256,256" width="50px" height="50px" fill-rule="nonzero"><g fill="#ed4461" fill-rule="nonzero" stroke="none" stroke-width="1" stroke-linecap="butt" stroke-linejoin="miter" stroke-miterlimit="10" stroke-dasharray="" stroke-dashoffset="0" font-family="none" font-weight="none" font-size="none" text-anchor="none" style="mix-blend-mode: normal"><g transform="scale(5.12,5.12)"><path d="M49.03125,0.96875l-1.0625,0.03125c0,0 -7.35156,0.09766 -14.4375,3.625c-2.27734,1.13672 -4.56641,2.69531 -6.625,4.75c-2.53516,2.53516 -6.11328,6.69531 -9.375,10.625h-8.53125c-0.03125,0 -0.0625,0 -0.09375,0c-0.26953,0.02734 -0.51953,0.16016 -0.6875,0.375l-5,6c-0.21094,0.26563 -0.27734,0.62109 -0.16797,0.94141c0.10547,0.32031 0.37109,0.56641 0.69922,0.65234l6.09375,1.53125c-0.04687,0.05859 -0.34375,0.4375 -0.34375,0.4375l-0.125,0.125l-0.0625,0.1875c0,0 -0.08594,0.35156 -0.0625,0.6875c0.00781,0.125 0.03125,0.28906 0.0625,0.4375l-2.15625,3.625c0,0 -0.09766,0.19531 -0.125,0.3125c-0.02734,0.11719 -0.03516,0.26172 -0.03125,0.40625c0.00781,0.28906 0.07813,0.61328 0.25,1c0.34375,0.77344 1.07813,1.79688 2.65625,3.375c1.57813,1.57422 2.59766,2.3125 3.375,2.65625c0.38672,0.17188 0.71094,0.24219 1,0.25c0.14453,0.00391 0.28906,-0.00391 0.40625,-0.03125c0.11719,-0.02734 0.3125,-0.125 0.3125,-0.125l3.65625,-2.15625c0.13672,0.02734 0.29297,0.05469 0.40625,0.0625c0.33594,0.02344 0.6875,-0.0625 0.6875,-0.0625l0.1875,-0.0625l0.15625,-0.125c0,0 0.35547,-0.27344 0.40625,-0.3125l1.53125,6.0625c0.08594,0.32813 0.33203,0.59375 0.65234,0.69922c0.32031,0.10938 0.67578,0.04297 0.94141,-0.16797l6,-5c0.23828,-0.19141 0.375,-0.47656 0.375,-0.78125v-8.5625c3.95703,-3.28906 8.14453,-6.86328 10.625,-9.34375c2.04688,-2.05078 3.58203,-4.34375 4.71875,-6.625c3.51172,-7.07422 3.65625,-14.4375 3.65625,-14.4375zM46.875,3.125c-0.08203,1.50391 -0.47656,6.75 -3.3125,12.46875c-1.05469,2.12109 -2.46875,4.21875 -4.34375,6.09375c-2.4375,2.4375 -6.72656,6.09375 -10.71875,9.40625c-0.08203,0.05078 -0.15625,0.11328 -0.21875,0.1875c-4.67578,3.875 -8.89453,7.23047 -9.15625,7.4375c-0.11719,-0.01172 -0.30078,-0.02344 -0.625,-0.15625c-0.74609,-0.30469 -2.05469,-1.08594 -4,-3.03125c-1.94531,-1.94531 -2.75781,-3.28516 -3.0625,-4.03125c-0.13281,-0.32422 -0.14453,-0.50781 -0.15625,-0.625c0.20703,-0.26172 3.51563,-4.43359 7.375,-9.09375c0.10547,-0.08594 0.1875,-0.19141 0.25,-0.3125c3.27734,-3.95312 6.91016,-8.19141 9.40625,-10.6875c1.88281,-1.88281 3.97656,-3.28516 6.09375,-4.34375c5.72656,-2.84766 10.96875,-3.23437 12.46875,-3.3125zM34,11c-2.75,0 -5,2.25 -5,5c0,2.75 2.25,5 5,5c2.75,0 5,-2.25 5,-5c0,-2.75 -2.25,-5 -5,-5zM34,13c1.66797,0 3,1.33203 3,3c0,1.66797 -1.33203,3 -3,3c-1.66797,0 -3,-1.33203 -3,-3c0,-1.66797 1.33203,-3 3,-3zM9.46875,22h6.40625c-1.91797,2.33984 -3.49609,4.32813 -4.65625,5.78125l-5.4375,-1.375zM10.3125,33.59375c0.57031,0.91406 1.40625,2 2.75,3.34375c1.33984,1.33984 2.42969,2.17969 3.34375,2.75l-2.15625,1.28125c-0.03125,-0.00781 -0.02734,-0.00391 -0.15625,-0.0625c-0.41016,-0.17969 -1.30469,-0.74609 -2.78125,-2.21875c-1.47266,-1.47656 -2.03906,-2.37109 -2.21875,-2.78125c-0.05859,-0.12891 -0.05469,-0.125 -0.0625,-0.15625zM28,34.125v6.40625l-4.40625,3.6875l-1.375,-5.40625c1.44922,-1.16016 3.41797,-2.74219 5.78125,-4.6875zM6.40625,38.21875c-1.63281,1.25391 -3.10937,1.41406 -4.4375,2.71875c-0.66406,0.65234 -1.19141,1.57813 -1.5,2.84375c-0.30859,1.26563 -0.4375,2.89844 -0.4375,5.1875v1h1c4.59375,0 6.83984,-0.72656 8.1875,-2.09375c1.34766,-1.36719 1.57031,-2.89062 2.59375,-4.28125l-1.625,-1.1875c-1.29687,1.76563 -1.58594,3.23047 -2.40625,4.0625c-0.72266,0.73438 -2.33203,1.27344 -5.65625,1.40625c0.05078,-1.45312 0.12109,-2.84766 0.3125,-3.625c0.25,-1.01172 0.55469,-1.5 0.9375,-1.875c0.76172,-0.75 2.25391,-1.08594 4.21875,-2.59375zM14.09375,41.0625l-0.09375,0.0625v-0.03125c0,0 0.05469,-0.01562 0.09375,-0.03125z"></path></g></g></svg>