<svg xmlns="http://www.w3.org/2000/svg" xmlns:xlink="http://www.w3.org/1999/xlink" width="1920" zoomAndPan="magnify" viewBox="0 0 1440 809.999993" height="1080" preserveAspectRatio="xMidYMid meet" version="1.0"><defs><filter x="0%" y="0%" width="100%" height="100%" id="0ea1942fad"><feColorMatrix values="0 0 0 0 1 0 0 0 0 1 0 0 0 0 1 0 0 0 1 0" color-interpolation-filters="sRGB"/></filter><g/><clipPath id="e8b813341b"><path d="M 0 170.671875 L 1440 170.671875 L 1440 639 L 0 639 Z M 0 170.671875 " clip-rule="nonzero"/></clipPath><clipPath id="ee9b4ff2af"><path d="M 0 170.671875 L 1440 170.671875 L 1440 315 L 0 315 Z M 0 170.671875 " clip-rule="nonzero"/></clipPath><mask id="76b36b98d7"><g filter="url(#0ea1942fad)"><rect x="-144" width="1728" fill="#000000" y="-80.999999" height="971.999992" fill-opacity="0.3"/></g></mask><clipPath id="a26ed2b1ca"><rect x="0" width="624" y="0" height="59"/></clipPath><mask id="d751133770"><g filter="url(#0ea1942fad)"><rect x="-144" width="1728" fill="#000000" y="-80.999999" height="971.999992" fill-opacity="0.3"/></g></mask><clipPath id="405fe3da65"><rect x="0" width="47" y="0" height="50"/></clipPath><clipPath id="c901d8b446"><path d="M 0 170.671875 L 1440 170.671875 L 1440 639 L 0 639 Z M 0 170.671875 " clip-rule="nonzero"/></clipPath><mask id="90c3ff645a"><g filter="url(#0ea1942fad)"><rect x="-144" width="1728" fill="#000000" y="-80.999999" height="971.999992" fill-opacity="0.3"/></g></mask><clipPath id="4f9eccec3d"><path d="M 1 0.160156 L 1423 0.160156 L 1423 433 L 1 433 Z M 1 0.160156 " clip-rule="nonzero"/></clipPath><clipPath id="4876a90a2d"><rect x="0" width="1423" y="0" height="436"/></clipPath><clipPath id="9fdbc1a98c"><path d="M 0 170.671875 L 1423 170.671875 L 1423 624 L 0 624 Z M 0 170.671875 " clip-rule="nonzero"/></clipPath><mask id="b55096989b"><g filter="url(#0ea1942fad)"><rect x="-144" width="1728" fill="#000000" y="-80.999999" height="971.999992" fill-opacity="0.5"/></g></mask><clipPath id="acab0b2590"><path d="M 0 0.878906 L 1422.71875 0.878906 L 1422.71875 451 L 0 451 Z M 0 0.878906 " clip-rule="nonzero"/></clipPath><clipPath id="43af35b72f"><rect x="0" width="1423" y="0" height="454"/></clipPath><clipPath id="d8993f8443"><path d="M 134.285156 239.734375 L 254.34375 239.734375 L 254.34375 297.394531 L 134.285156 297.394531 Z M 134.285156 239.734375 " clip-rule="nonzero"/></clipPath><clipPath id="ac5f6b11e0"><path d="M 194.171875 239.734375 L 254.34375 239.734375 L 254.34375 297.394531 L 194.171875 297.394531 Z M 194.171875 239.734375 " clip-rule="nonzero"/></clipPath><clipPath id="b19679c644"><path d="M 120.066406 181.402344 L 268.5625 181.402344 L 268.5625 240.929688 L 120.066406 240.929688 Z M 120.066406 181.402344 " clip-rule="nonzero"/></clipPath><clipPath id="ee87cb3824"><path d="M 194.171875 181.402344 L 268.5625 181.402344 L 268.5625 240.929688 L 194.171875 240.929688 Z M 194.171875 181.402344 " clip-rule="nonzero"/></clipPath></defs><g clip-path="url(#e8b813341b)"><path fill="#ceadde" d="M 0 170.996094 L 1440 170.996094 L 1440 638.996094 L 0 638.996094 Z M 0 170.996094 " fill-opacity="1" fill-rule="nonzero"/><path fill="#fdfcf5" d="M 0 170.996094 L 1440 170.996094 L 1440 638.996094 L 0 638.996094 Z M 0 170.996094 " fill-opacity="1" fill-rule="nonzero"/></g><g clip-path="url(#ee9b4ff2af)"><path fill="#fededb" d="M 0 170.996094 L 1440 170.996094 L 1440 314.996094 L 0 314.996094 Z M 0 170.996094 " fill-opacity="1" fill-rule="nonzero"/></g><g mask="url(#76b36b98d7)"><g transform="matrix(1, 0, 0, 1, 79, 565)"><g clip-path="url(#a26ed2b1ca)"><path fill="#9f8fff" d="M 622.894531 2.101562 L 622.894531 56.246094 L 1.964844 56.246094 L 1.964844 2.101562 Z M 622.894531 2.101562 " fill-opacity="1" fill-rule="nonzero"/></g></g></g><g mask="url(#d751133770)"><g transform="matrix(1, 0, 0, 1, 25, 565)"><g clip-path="url(#405fe3da65)"><path fill="#ceadde" d="M 47 1.996094 L 2.070312 1.996094 L 2.070312 46.921875 L 11 46.921875 L 11 10.921875 L 47 10.921875 Z M 47 1.996094 " fill-opacity="1" fill-rule="nonzero"/></g></g></g><g clip-path="url(#c901d8b446)"><path fill="#9f8fff" d="M 1422.144531 170.996094 L 1422.144531 404.851562 L 18.144531 404.851562 L 18.144531 620.851562 L 0 620.851562 L 0 638.707031 L 1440 638.707031 L 1440 170.996094 Z M 1422.144531 414.066406 L 1422.144531 558.066406 L 27.070312 558.066406 L 27.070312 414.066406 Z M 27.070312 620.851562 L 27.070312 566.707031 L 81.214844 566.707031 L 81.214844 620.851562 Z M 90.144531 620.851562 L 90.144531 566.707031 L 702.144531 566.707031 L 702.144531 620.851562 Z M 711.070312 620.851562 L 711.070312 566.707031 L 1359.070312 566.707031 L 1359.070312 620.851562 Z M 1368 620.851562 L 1368 566.707031 L 1422.144531 566.707031 L 1422.144531 620.851562 Z M 44.929688 594.066406 L 62.785156 580.53125 L 62.785156 607.601562 Z M 1403.136719 594.066406 L 1385.28125 607.601562 L 1385.28125 580.53125 Z M 1403.136719 594.066406 " fill-opacity="1" fill-rule="nonzero"/></g><g mask="url(#90c3ff645a)"><g transform="matrix(1, 0, 0, 1, 17, 188)"><g clip-path="url(#4876a90a2d)"><g clip-path="url(#4f9eccec3d)"><path fill="#9f8fff" d="M 1387 216.851562 L 1.144531 216.851562 L 1.144531 198.996094 L 1387 198.996094 L 1387 126.996094 L 1.144531 126.996094 L 1.144531 109.140625 L 1387 109.140625 L 1387 0.851562 L 1404.855469 0.851562 L 1404.855469 370.066406 L 1387 370.066406 Z M 1405.144531 423.921875 L 1405.144531 378.996094 L 1396.214844 378.996094 L 1396.214844 423.921875 L 1342.070312 423.921875 L 1342.070312 378.996094 L 1333.144531 378.996094 L 1333.144531 423.921875 L 685.144531 423.921875 L 685.144531 378.996094 L 676.214844 378.996094 L 676.214844 423.921875 L 63.929688 423.921875 L 63.929688 378.996094 L 55 378.996094 L 55 423.921875 L 1.144531 423.921875 L 1.144531 432.851562 L 1423 432.851562 L 1423 423.921875 Z M 1405.144531 423.921875 " fill-opacity="1" fill-rule="nonzero"/></g></g></g></g><g clip-path="url(#9fdbc1a98c)"><g mask="url(#b55096989b)"><g transform="matrix(1, 0, 0, 1, 0, 170)"><g clip-path="url(#43af35b72f)"><g clip-path="url(#acab0b2590)"><path fill="#ceadde" d="M 1422.144531 0.996094 L 1422.144531 18.851562 L 18.144531 18.851562 L 18.144531 144.996094 L 1404 144.996094 L 1404 162.851562 L 18.144531 162.851562 L 18.144531 243.777344 L 1404 243.777344 L 1404 252.707031 L 18.144531 252.707031 L 18.144531 450.851562 L 0 450.851562 L 0 0.996094 Z M 90.144531 396.996094 L 90.144531 441.921875 L 99.070312 441.921875 L 99.070312 405.921875 L 693.214844 405.921875 L 693.214844 396.996094 Z M 1368 396.996094 L 1368 441.921875 L 1376.929688 441.921875 L 1376.929688 405.921875 L 1412.929688 405.921875 L 1412.929688 396.996094 Z M 711.070312 405.921875 L 1350.144531 405.921875 L 1350.144531 396.996094 L 711.070312 396.996094 Z M 711.070312 405.921875 " fill-opacity="1" fill-rule="nonzero"/></g></g></g></g></g><g clip-path="url(#d8993f8443)"><path fill="#7c401e" d="M 247.527344 240.894531 L 141.101562 240.894531 C 138.71875 240.894531 136.433594 240.476562 134.296875 239.746094 L 134.296875 275.894531 C 134.296875 287.769531 143.917969 297.394531 155.785156 297.394531 L 232.84375 297.394531 C 244.710938 297.394531 254.332031 287.769531 254.332031 275.894531 L 254.332031 239.746094 C 252.195312 240.476562 249.910156 240.894531 247.527344 240.894531 " fill-opacity="1" fill-rule="nonzero"/></g><g clip-path="url(#ac5f6b11e0)"><path fill="#99502c" d="M 194.199219 240.894531 L 194.199219 297.394531 L 232.84375 297.394531 C 244.710938 297.394531 254.332031 287.769531 254.332031 275.894531 L 254.332031 239.746094 C 252.195312 240.476562 249.910156 240.894531 247.527344 240.894531 L 194.199219 240.894531 " fill-opacity="1" fill-rule="nonzero"/></g><g clip-path="url(#b19679c644)"><path fill="#934d2a" d="M 247.527344 240.894531 L 141.101562 240.894531 C 129.484375 240.894531 120.066406 231.46875 120.066406 219.839844 L 120.066406 202.503906 C 120.066406 190.878906 129.484375 181.453125 141.101562 181.453125 L 247.527344 181.453125 C 259.144531 181.453125 268.5625 190.878906 268.5625 202.503906 L 268.5625 219.839844 C 268.5625 231.46875 259.144531 240.894531 247.527344 240.894531 " fill-opacity="1" fill-rule="nonzero"/></g><g clip-path="url(#ee87cb3824)"><path fill="#bc603e" d="M 247.527344 181.453125 L 194.199219 181.453125 L 194.199219 240.894531 L 247.527344 240.894531 C 259.144531 240.894531 268.5625 231.46875 268.5625 219.839844 L 268.5625 202.503906 C 268.5625 190.878906 259.144531 181.453125 247.527344 181.453125 " fill-opacity="1" fill-rule="nonzero"/></g><path fill="#59b751" d="M 221.117188 181.453125 C 268.402344 172.691406 262.285156 121.546875 262.285156 121.546875 C 189.300781 113.714844 194.34375 174.253906 195.199219 181.453125 L 221.117188 181.453125 " fill-opacity="1" fill-rule="nonzero"/><path fill="#3f913a" d="M 167.550781 181.453125 L 193.46875 181.453125 C 194.324219 174.253906 199.367188 113.714844 126.382812 121.546875 C 126.382812 121.546875 120.265625 172.691406 167.550781 181.453125 " fill-opacity="1" fill-rule="nonzero"/><path fill="#ffffff" d="M 218.953125 211.0625 L 195.371094 211.0625 C 189.164062 211.0625 184.128906 206.027344 184.128906 199.8125 C 184.128906 193.601562 189.164062 188.5625 195.371094 188.5625 L 218.953125 188.5625 C 225.160156 188.5625 230.195312 193.601562 230.195312 199.8125 C 230.195312 206.027344 225.160156 211.0625 218.953125 211.0625 " fill-opacity="1" fill-rule="nonzero"/><path fill="#ffffff" d="M 248.28125 211.066406 L 245.230469 211.066406 C 239.019531 211.066406 233.988281 206.027344 233.988281 199.816406 C 233.988281 193.601562 239.019531 188.566406 245.230469 188.566406 L 248.28125 188.566406 C 254.488281 188.566406 259.523438 193.601562 259.523438 199.816406 C 259.523438 206.027344 254.488281 211.066406 248.28125 211.066406 " fill-opacity="1" fill-rule="nonzero"/><g fill="#ed4461" fill-opacity="1"><g transform="translate(221.686624, 511.931463)"><g><path d="M 29.890625 -39.859375 C 30.117188 -38.972656 30.234375 -37.867188 30.234375 -36.546875 C 30.234375 -35.265625 30.117188 -34.15625 29.890625 -33.21875 C 30.117188 -32.332031 30.234375 -31.222656 30.234375 -29.890625 C 30.234375 -28.617188 30.117188 -27.515625 29.890625 -26.578125 C 30.117188 -25.691406 30.234375 -24.582031 30.234375 -23.25 C 30.234375 -21.976562 30.117188 -20.875 29.890625 -19.9375 C 30.117188 -19.050781 30.234375 -17.941406 30.234375 -16.609375 C 30.234375 -15.335938 30.117188 -14.226562 29.890625 -13.28125 C 30.117188 -12.394531 30.234375 -11.289062 30.234375 -9.96875 C 30.234375 -8.695312 30.117188 -7.585938 29.890625 -6.640625 C 30.117188 -5.753906 30.234375 -4.648438 30.234375 -3.328125 C 30.234375 -2.046875 30.117188 -0.9375 29.890625 0 L 23.25 0 C 23.03125 -0.9375 22.921875 -2.046875 22.921875 -3.328125 C 22.921875 -4.648438 23.03125 -5.753906 23.25 -6.640625 C 23.03125 -7.585938 22.921875 -8.695312 22.921875 -9.96875 C 22.921875 -11.289062 23.03125 -12.394531 23.25 -13.28125 C 23.03125 -14.226562 22.921875 -15.335938 22.921875 -16.609375 C 22.921875 -17.941406 23.03125 -19.050781 23.25 -19.9375 L 9.96875 -19.9375 C 10.1875 -19.050781 10.296875 -17.941406 10.296875 -16.609375 C 10.296875 -15.335938 10.1875 -14.226562 9.96875 -13.28125 C 10.1875 -12.394531 10.296875 -11.289062 10.296875 -9.96875 C 10.296875 -8.695312 10.1875 -7.585938 9.96875 -6.640625 C 10.1875 -5.753906 10.296875 -4.648438 10.296875 -3.328125 C 10.296875 -2.046875 10.1875 -0.9375 9.96875 0 L 3.328125 0 C 3.097656 -0.9375 2.984375 -2.046875 2.984375 -3.328125 C 2.984375 -4.648438 3.097656 -5.753906 3.328125 -6.640625 C 3.097656 -7.585938 2.984375 -8.695312 2.984375 -9.96875 C 2.984375 -11.289062 3.097656 -12.394531 3.328125 -13.28125 C 3.097656 -14.226562 2.984375 -15.335938 2.984375 -16.609375 C 2.984375 -17.941406 3.097656 -19.050781 3.328125 -19.9375 C 3.097656 -20.875 2.984375 -21.976562 2.984375 -23.25 C 2.984375 -24.582031 3.097656 -25.691406 3.328125 -26.578125 C 3.097656 -27.515625 2.984375 -28.617188 2.984375 -29.890625 C 2.984375 -31.222656 3.097656 -32.332031 3.328125 -33.21875 C 3.097656 -34.15625 2.984375 -35.265625 2.984375 -36.546875 C 2.984375 -37.867188 3.097656 -38.972656 3.328125 -39.859375 C 3.097656 -40.804688 2.984375 -41.914062 2.984375 -43.1875 C 2.984375 -44.507812 3.097656 -45.613281 3.328125 -46.5 L 9.96875 -46.5 C 10.1875 -45.613281 10.296875 -44.507812 10.296875 -43.1875 C 10.296875 -41.914062 10.1875 -40.804688 9.96875 -39.859375 C 10.1875 -38.972656 10.296875 -37.867188 10.296875 -36.546875 C 10.296875 -35.265625 10.1875 -34.15625 9.96875 -33.21875 C 10.1875 -32.332031 10.296875 -31.222656 10.296875 -29.890625 C 10.296875 -28.617188 10.1875 -27.515625 9.96875 -26.578125 L 23.25 -26.578125 C 23.03125 -27.515625 22.921875 -28.617188 22.921875 -29.890625 C 22.921875 -31.222656 23.03125 -32.332031 23.25 -33.21875 C 23.03125 -34.15625 22.921875 -35.265625 22.921875 -36.546875 C 22.921875 -37.867188 23.03125 -38.972656 23.25 -39.859375 C 23.03125 -40.804688 22.921875 -41.914062 22.921875 -43.1875 C 22.921875 -44.507812 23.03125 -45.613281 23.25 -46.5 L 29.890625 -46.5 C 30.117188 -45.613281 30.234375 -44.507812 30.234375 -43.1875 C 30.234375 -41.914062 30.117188 -40.804688 29.890625 -39.859375 Z M 29.890625 -39.859375 "/></g></g></g><g fill="#ed4461" fill-opacity="1"><g transform="translate(254.907504, 511.931463)"><g><path d="M 30.234375 -23.25 C 30.234375 -21.976562 30.117188 -20.875 29.890625 -19.9375 C 30.117188 -19.050781 30.234375 -17.941406 30.234375 -16.609375 C 30.234375 -15.335938 30.117188 -14.226562 29.890625 -13.28125 L 12.453125 -13.28125 C 12.679688 -12.394531 12.796875 -11.289062 12.796875 -9.96875 C 12.796875 -8.695312 12.679688 -7.585938 12.453125 -6.640625 L 26.578125 -6.640625 C 26.796875 -5.753906 26.90625 -4.648438 26.90625 -3.328125 C 26.90625 -2.046875 26.796875 -0.9375 26.578125 0 L 9.96875 0 C 9.75 -0.9375 9.640625 -2.046875 9.640625 -3.328125 C 9.640625 -4.648438 9.75 -5.753906 9.96875 -6.640625 L 5.8125 -6.640625 C 5.59375 -7.585938 5.484375 -8.695312 5.484375 -9.96875 C 5.484375 -11.289062 5.59375 -12.394531 5.8125 -13.28125 L 3.328125 -13.28125 C 3.097656 -14.226562 2.984375 -15.335938 2.984375 -16.609375 C 2.984375 -17.941406 3.097656 -19.050781 3.328125 -19.9375 L 5.8125 -19.9375 C 5.59375 -20.875 5.484375 -21.976562 5.484375 -23.25 C 5.484375 -24.582031 5.59375 -25.691406 5.8125 -26.578125 L 9.96875 -26.578125 C 9.75 -27.515625 9.640625 -28.617188 9.640625 -29.890625 C 9.640625 -31.222656 9.75 -32.332031 9.96875 -33.21875 L 26.578125 -33.21875 C 26.796875 -32.332031 26.90625 -31.222656 26.90625 -29.890625 C 26.90625 -28.617188 26.796875 -27.515625 26.578125 -26.578125 L 29.890625 -26.578125 C 30.117188 -25.691406 30.234375 -24.582031 30.234375 -23.25 Z M 23.25 -19.9375 C 23.03125 -20.875 22.921875 -21.976562 22.921875 -23.25 C 22.921875 -24.582031 23.03125 -25.691406 23.25 -26.578125 L 12.453125 -26.578125 C 12.679688 -25.691406 12.796875 -24.582031 12.796875 -23.25 C 12.796875 -21.976562 12.679688 -20.875 12.453125 -19.9375 Z M 23.25 -19.9375 "/></g></g></g><g fill="#ed4461" fill-opacity="1"><g transform="translate(288.128384, 511.931463)"><g><path d="M 26.578125 -6.640625 C 26.796875 -5.753906 26.90625 -4.648438 26.90625 -3.328125 C 26.90625 -2.046875 26.796875 -0.9375 26.578125 0 L 6.640625 0 C 6.421875 -0.9375 6.3125 -2.046875 6.3125 -3.328125 C 6.3125 -4.648438 6.421875 -5.753906 6.640625 -6.640625 L 13.28125 -6.640625 C 13.0625 -7.585938 12.953125 -8.695312 12.953125 -9.96875 C 12.953125 -11.289062 13.0625 -12.394531 13.28125 -13.28125 C 13.0625 -14.226562 12.953125 -15.335938 12.953125 -16.609375 C 12.953125 -17.941406 13.0625 -19.050781 13.28125 -19.9375 C 13.0625 -20.875 12.953125 -21.976562 12.953125 -23.25 C 12.953125 -24.582031 13.0625 -25.691406 13.28125 -26.578125 C 13.0625 -27.515625 12.953125 -28.617188 12.953125 -29.890625 C 12.953125 -31.222656 13.0625 -32.332031 13.28125 -33.21875 C 13.0625 -34.15625 12.953125 -35.265625 12.953125 -36.546875 C 12.953125 -37.867188 13.0625 -38.972656 13.28125 -39.859375 L 8.3125 -39.859375 C 8.082031 -40.804688 7.96875 -41.914062 7.96875 -43.1875 C 7.96875 -44.507812 8.082031 -45.613281 8.3125 -46.5 L 19.9375 -46.5 C 20.15625 -45.613281 20.265625 -44.507812 20.265625 -43.1875 C 20.265625 -41.914062 20.15625 -40.804688 19.9375 -39.859375 C 20.15625 -38.972656 20.265625 -37.867188 20.265625 -36.546875 C 20.265625 -35.265625 20.15625 -34.15625 19.9375 -33.21875 C 20.15625 -32.332031 20.265625 -31.222656 20.265625 -29.890625 C 20.265625 -28.617188 20.15625 -27.515625 19.9375 -26.578125 C 20.15625 -25.691406 20.265625 -24.582031 20.265625 -23.25 C 20.265625 -21.976562 20.15625 -20.875 19.9375 -19.9375 C 20.15625 -19.050781 20.265625 -17.941406 20.265625 -16.609375 C 20.265625 -15.335938 20.15625 -14.226562 19.9375 -13.28125 C 20.15625 -12.394531 20.265625 -11.289062 20.265625 -9.96875 C 20.265625 -8.695312 20.15625 -7.585938 19.9375 -6.640625 Z M 26.578125 -6.640625 "/></g></g></g><g fill="#ed4461" fill-opacity="1"><g transform="translate(321.349264, 511.931463)"><g><path d="M 26.578125 -6.640625 C 26.796875 -5.753906 26.90625 -4.648438 26.90625 -3.328125 C 26.90625 -2.046875 26.796875 -0.9375 26.578125 0 L 6.640625 0 C 6.421875 -0.9375 6.3125 -2.046875 6.3125 -3.328125 C 6.3125 -4.648438 6.421875 -5.753906 6.640625 -6.640625 L 13.28125 -6.640625 C 13.0625 -7.585938 12.953125 -8.695312 12.953125 -9.96875 C 12.953125 -11.289062 13.0625 -12.394531 13.28125 -13.28125 C 13.0625 -14.226562 12.953125 -15.335938 12.953125 -16.609375 C 12.953125 -17.941406 13.0625 -19.050781 13.28125 -19.9375 C 13.0625 -20.875 12.953125 -21.976562 12.953125 -23.25 C 12.953125 -24.582031 13.0625 -25.691406 13.28125 -26.578125 C 13.0625 -27.515625 12.953125 -28.617188 12.953125 -29.890625 C 12.953125 -31.222656 13.0625 -32.332031 13.28125 -33.21875 C 13.0625 -34.15625 12.953125 -35.265625 12.953125 -36.546875 C 12.953125 -37.867188 13.0625 -38.972656 13.28125 -39.859375 L 8.3125 -39.859375 C 8.082031 -40.804688 7.96875 -41.914062 7.96875 -43.1875 C 7.96875 -44.507812 8.082031 -45.613281 8.3125 -46.5 L 19.9375 -46.5 C 20.15625 -45.613281 20.265625 -44.507812 20.265625 -43.1875 C 20.265625 -41.914062 20.15625 -40.804688 19.9375 -39.859375 C 20.15625 -38.972656 20.265625 -37.867188 20.265625 -36.546875 C 20.265625 -35.265625 20.15625 -34.15625 19.9375 -33.21875 C 20.15625 -32.332031 20.265625 -31.222656 20.265625 -29.890625 C 20.265625 -28.617188 20.15625 -27.515625 19.9375 -26.578125 C 20.15625 -25.691406 20.265625 -24.582031 20.265625 -23.25 C 20.265625 -21.976562 20.15625 -20.875 19.9375 -19.9375 C 20.15625 -19.050781 20.265625 -17.941406 20.265625 -16.609375 C 20.265625 -15.335938 20.15625 -14.226562 19.9375 -13.28125 C 20.15625 -12.394531 20.265625 -11.289062 20.265625 -9.96875 C 20.265625 -8.695312 20.15625 -7.585938 19.9375 -6.640625 Z M 26.578125 -6.640625 "/></g></g></g><g fill="#ed4461" fill-opacity="1"><g transform="translate(354.570144, 511.931463)"><g><path d="M 30.234375 -16.609375 C 30.234375 -15.335938 30.117188 -14.226562 29.890625 -13.28125 L 27.40625 -13.28125 C 27.625 -12.394531 27.734375 -11.289062 27.734375 -9.96875 C 27.734375 -8.695312 27.625 -7.585938 27.40625 -6.640625 L 23.25 -6.640625 C 23.46875 -5.753906 23.578125 -4.648438 23.578125 -3.328125 C 23.578125 -2.046875 23.46875 -0.9375 23.25 0 L 9.96875 0 C 9.75 -0.9375 9.640625 -2.046875 9.640625 -3.328125 C 9.640625 -4.648438 9.75 -5.753906 9.96875 -6.640625 L 5.8125 -6.640625 C 5.59375 -7.585938 5.484375 -8.695312 5.484375 -9.96875 C 5.484375 -11.289062 5.59375 -12.394531 5.8125 -13.28125 L 3.328125 -13.28125 C 3.097656 -14.226562 2.984375 -15.335938 2.984375 -16.609375 C 2.984375 -17.941406 3.097656 -19.050781 3.328125 -19.9375 L 5.8125 -19.9375 C 5.59375 -20.875 5.484375 -21.976562 5.484375 -23.25 C 5.484375 -24.582031 5.59375 -25.691406 5.8125 -26.578125 L 9.96875 -26.578125 C 9.75 -27.515625 9.640625 -28.617188 9.640625 -29.890625 C 9.640625 -31.222656 9.75 -32.332031 9.96875 -33.21875 L 23.25 -33.21875 C 23.46875 -32.332031 23.578125 -31.222656 23.578125 -29.890625 C 23.578125 -28.617188 23.46875 -27.515625 23.25 -26.578125 L 27.40625 -26.578125 C 27.625 -25.691406 27.734375 -24.582031 27.734375 -23.25 C 27.734375 -21.976562 27.625 -20.875 27.40625 -19.9375 L 29.890625 -19.9375 C 30.117188 -19.050781 30.234375 -17.941406 30.234375 -16.609375 Z M 23.25 -13.28125 C 23.03125 -14.226562 22.921875 -15.335938 22.921875 -16.609375 C 22.921875 -17.941406 23.03125 -19.050781 23.25 -19.9375 L 20.765625 -19.9375 C 20.535156 -20.875 20.421875 -21.976562 20.421875 -23.25 C 20.421875 -24.582031 20.535156 -25.691406 20.765625 -26.578125 L 12.453125 -26.578125 C 12.679688 -25.691406 12.796875 -24.582031 12.796875 -23.25 C 12.796875 -21.976562 12.679688 -20.875 12.453125 -19.9375 L 9.96875 -19.9375 C 10.1875 -19.050781 10.296875 -17.941406 10.296875 -16.609375 C 10.296875 -15.335938 10.1875 -14.226562 9.96875 -13.28125 L 12.453125 -13.28125 C 12.679688 -12.394531 12.796875 -11.289062 12.796875 -9.96875 C 12.796875 -8.695312 12.679688 -7.585938 12.453125 -6.640625 L 20.765625 -6.640625 C 20.535156 -7.585938 20.421875 -8.695312 20.421875 -9.96875 C 20.421875 -11.289062 20.535156 -12.394531 20.765625 -13.28125 Z M 23.25 -13.28125 "/></g></g></g><g fill="#ed4461" fill-opacity="1"><g transform="translate(387.791024, 511.931463)"><g/></g></g><g fill="#ed4461" fill-opacity="1"><g transform="translate(421.011904, 511.931463)"><g><path d="M 29.890625 -39.859375 C 30.117188 -38.972656 30.234375 -37.867188 30.234375 -36.546875 C 30.234375 -35.265625 30.117188 -34.15625 29.890625 -33.21875 C 30.117188 -32.332031 30.234375 -31.222656 30.234375 -29.890625 C 30.234375 -28.617188 30.117188 -27.515625 29.890625 -26.578125 C 30.117188 -25.691406 30.234375 -24.582031 30.234375 -23.25 C 30.234375 -21.976562 30.117188 -20.875 29.890625 -19.9375 L 27.40625 -19.9375 C 27.625 -19.050781 27.734375 -17.941406 27.734375 -16.609375 C 27.734375 -15.335938 27.625 -14.226562 27.40625 -13.28125 C 27.625 -12.394531 27.734375 -11.289062 27.734375 -9.96875 C 27.734375 -8.695312 27.625 -7.585938 27.40625 -6.640625 L 25.75 -6.640625 C 25.96875 -5.753906 26.078125 -4.648438 26.078125 -3.328125 C 26.078125 -2.046875 25.96875 -0.9375 25.75 0 L 20.765625 0 C 20.535156 -0.9375 20.421875 -2.046875 20.421875 -3.328125 C 20.421875 -4.648438 20.535156 -5.753906 20.765625 -6.640625 L 19.09375 -6.640625 C 18.875 -7.585938 18.765625 -8.695312 18.765625 -9.96875 C 18.765625 -11.289062 18.875 -12.394531 19.09375 -13.28125 L 14.125 -13.28125 C 14.34375 -12.394531 14.453125 -11.289062 14.453125 -9.96875 C 14.453125 -8.695312 14.34375 -7.585938 14.125 -6.640625 L 12.453125 -6.640625 C 12.679688 -5.753906 12.796875 -4.648438 12.796875 -3.328125 C 12.796875 -2.046875 12.679688 -0.9375 12.453125 0 L 7.46875 0 C 7.25 -0.9375 7.140625 -2.046875 7.140625 -3.328125 C 7.140625 -4.648438 7.25 -5.753906 7.46875 -6.640625 L 5.8125 -6.640625 C 5.59375 -7.585938 5.484375 -8.695312 5.484375 -9.96875 C 5.484375 -11.289062 5.59375 -12.394531 5.8125 -13.28125 C 5.59375 -14.226562 5.484375 -15.335938 5.484375 -16.609375 C 5.484375 -17.941406 5.59375 -19.050781 5.8125 -19.9375 L 3.328125 -19.9375 C 3.097656 -20.875 2.984375 -21.976562 2.984375 -23.25 C 2.984375 -24.582031 3.097656 -25.691406 3.328125 -26.578125 C 3.097656 -27.515625 2.984375 -28.617188 2.984375 -29.890625 C 2.984375 -31.222656 3.097656 -32.332031 3.328125 -33.21875 C 3.097656 -34.15625 2.984375 -35.265625 2.984375 -36.546875 C 2.984375 -37.867188 3.097656 -38.972656 3.328125 -39.859375 C 3.097656 -40.804688 2.984375 -41.914062 2.984375 -43.1875 C 2.984375 -44.507812 3.097656 -45.613281 3.328125 -46.5 L 9.96875 -46.5 C 10.1875 -45.613281 10.296875 -44.507812 10.296875 -43.1875 C 10.296875 -41.914062 10.1875 -40.804688 9.96875 -39.859375 C 10.1875 -38.972656 10.296875 -37.867188 10.296875 -36.546875 C 10.296875 -35.265625 10.1875 -34.15625 9.96875 -33.21875 C 10.1875 -32.332031 10.296875 -31.222656 10.296875 -29.890625 C 10.296875 -28.617188 10.1875 -27.515625 9.96875 -26.578125 C 10.1875 -25.691406 10.296875 -24.582031 10.296875 -23.25 C 10.296875 -21.976562 10.1875 -20.875 9.96875 -19.9375 C 10.1875 -19.050781 10.296875 -17.941406 10.296875 -16.609375 C 10.296875 -15.335938 10.1875 -14.226562 9.96875 -13.28125 L 12.453125 -13.28125 C 12.234375 -14.226562 12.125 -15.335938 12.125 -16.609375 C 12.125 -17.941406 12.234375 -19.050781 12.453125 -19.9375 L 14.125 -19.9375 C 13.894531 -20.875 13.78125 -21.976562 13.78125 -23.25 C 13.78125 -24.582031 13.894531 -25.691406 14.125 -26.578125 C 13.894531 -27.515625 13.78125 -28.617188 13.78125 -29.890625 C 13.78125 -31.222656 13.894531 -32.332031 14.125 -33.21875 C 13.894531 -34.15625 13.78125 -35.265625 13.78125 -36.546875 C 13.78125 -37.867188 13.894531 -38.972656 14.125 -39.859375 C 13.894531 -40.804688 13.78125 -41.914062 13.78125 -43.1875 C 13.78125 -44.507812 13.894531 -45.613281 14.125 -46.5 L 19.09375 -46.5 C 19.320312 -45.613281 19.4375 -44.507812 19.4375 -43.1875 C 19.4375 -41.914062 19.320312 -40.804688 19.09375 -39.859375 C 19.320312 -38.972656 19.4375 -37.867188 19.4375 -36.546875 C 19.4375 -35.265625 19.320312 -34.15625 19.09375 -33.21875 C 19.320312 -32.332031 19.4375 -31.222656 19.4375 -29.890625 C 19.4375 -28.617188 19.320312 -27.515625 19.09375 -26.578125 C 19.320312 -25.691406 19.4375 -24.582031 19.4375 -23.25 C 19.4375 -21.976562 19.320312 -20.875 19.09375 -19.9375 L 20.765625 -19.9375 C 20.984375 -19.050781 21.09375 -17.941406 21.09375 -16.609375 C 21.09375 -15.335938 20.984375 -14.226562 20.765625 -13.28125 L 23.25 -13.28125 C 23.03125 -14.226562 22.921875 -15.335938 22.921875 -16.609375 C 22.921875 -17.941406 23.03125 -19.050781 23.25 -19.9375 C 23.03125 -20.875 22.921875 -21.976562 22.921875 -23.25 C 22.921875 -24.582031 23.03125 -25.691406 23.25 -26.578125 C 23.03125 -27.515625 22.921875 -28.617188 22.921875 -29.890625 C 22.921875 -31.222656 23.03125 -32.332031 23.25 -33.21875 C 23.03125 -34.15625 22.921875 -35.265625 22.921875 -36.546875 C 22.921875 -37.867188 23.03125 -38.972656 23.25 -39.859375 C 23.03125 -40.804688 22.921875 -41.914062 22.921875 -43.1875 C 22.921875 -44.507812 23.03125 -45.613281 23.25 -46.5 L 29.890625 -46.5 C 30.117188 -45.613281 30.234375 -44.507812 30.234375 -43.1875 C 30.234375 -41.914062 30.117188 -40.804688 29.890625 -39.859375 Z M 29.890625 -39.859375 "/></g></g></g><g fill="#ed4461" fill-opacity="1"><g transform="translate(454.232784, 511.931463)"><g><path d="M 30.234375 -16.609375 C 30.234375 -15.335938 30.117188 -14.226562 29.890625 -13.28125 L 27.40625 -13.28125 C 27.625 -12.394531 27.734375 -11.289062 27.734375 -9.96875 C 27.734375 -8.695312 27.625 -7.585938 27.40625 -6.640625 L 23.25 -6.640625 C 23.46875 -5.753906 23.578125 -4.648438 23.578125 -3.328125 C 23.578125 -2.046875 23.46875 -0.9375 23.25 0 L 9.96875 0 C 9.75 -0.9375 9.640625 -2.046875 9.640625 -3.328125 C 9.640625 -4.648438 9.75 -5.753906 9.96875 -6.640625 L 5.8125 -6.640625 C 5.59375 -7.585938 5.484375 -8.695312 5.484375 -9.96875 C 5.484375 -11.289062 5.59375 -12.394531 5.8125 -13.28125 L 3.328125 -13.28125 C 3.097656 -14.226562 2.984375 -15.335938 2.984375 -16.609375 C 2.984375 -17.941406 3.097656 -19.050781 3.328125 -19.9375 L 5.8125 -19.9375 C 5.59375 -20.875 5.484375 -21.976562 5.484375 -23.25 C 5.484375 -24.582031 5.59375 -25.691406 5.8125 -26.578125 L 9.96875 -26.578125 C 9.75 -27.515625 9.640625 -28.617188 9.640625 -29.890625 C 9.640625 -31.222656 9.75 -32.332031 9.96875 -33.21875 L 23.25 -33.21875 C 23.46875 -32.332031 23.578125 -31.222656 23.578125 -29.890625 C 23.578125 -28.617188 23.46875 -27.515625 23.25 -26.578125 L 27.40625 -26.578125 C 27.625 -25.691406 27.734375 -24.582031 27.734375 -23.25 C 27.734375 -21.976562 27.625 -20.875 27.40625 -19.9375 L 29.890625 -19.9375 C 30.117188 -19.050781 30.234375 -17.941406 30.234375 -16.609375 Z M 23.25 -13.28125 C 23.03125 -14.226562 22.921875 -15.335938 22.921875 -16.609375 C 22.921875 -17.941406 23.03125 -19.050781 23.25 -19.9375 L 20.765625 -19.9375 C 20.535156 -20.875 20.421875 -21.976562 20.421875 -23.25 C 20.421875 -24.582031 20.535156 -25.691406 20.765625 -26.578125 L 12.453125 -26.578125 C 12.679688 -25.691406 12.796875 -24.582031 12.796875 -23.25 C 12.796875 -21.976562 12.679688 -20.875 12.453125 -19.9375 L 9.96875 -19.9375 C 10.1875 -19.050781 10.296875 -17.941406 10.296875 -16.609375 C 10.296875 -15.335938 10.1875 -14.226562 9.96875 -13.28125 L 12.453125 -13.28125 C 12.679688 -12.394531 12.796875 -11.289062 12.796875 -9.96875 C 12.796875 -8.695312 12.679688 -7.585938 12.453125 -6.640625 L 20.765625 -6.640625 C 20.535156 -7.585938 20.421875 -8.695312 20.421875 -9.96875 C 20.421875 -11.289062 20.535156 -12.394531 20.765625 -13.28125 Z M 23.25 -13.28125 "/></g></g></g><g fill="#ed4461" fill-opacity="1"><g transform="translate(487.453664, 511.931463)"><g><path d="M 29.890625 -26.578125 C 30.117188 -25.691406 30.234375 -24.582031 30.234375 -23.25 C 30.234375 -21.976562 30.117188 -20.875 29.890625 -19.9375 L 23.25 -19.9375 C 23.03125 -20.875 22.921875 -21.976562 22.921875 -23.25 C 22.921875 -24.582031 23.03125 -25.691406 23.25 -26.578125 L 17.4375 -26.578125 C 17.65625 -25.691406 17.765625 -24.582031 17.765625 -23.25 C 17.765625 -21.976562 17.65625 -20.875 17.4375 -19.9375 L 14.953125 -19.9375 C 15.171875 -19.050781 15.28125 -17.941406 15.28125 -16.609375 C 15.28125 -15.335938 15.171875 -14.226562 14.953125 -13.28125 C 15.171875 -12.394531 15.28125 -11.289062 15.28125 -9.96875 C 15.28125 -8.695312 15.171875 -7.585938 14.953125 -6.640625 L 19.9375 -6.640625 C 20.15625 -5.753906 20.265625 -4.648438 20.265625 -3.328125 C 20.265625 -2.046875 20.15625 -0.9375 19.9375 0 L 3.328125 0 C 3.097656 -0.9375 2.984375 -2.046875 2.984375 -3.328125 C 2.984375 -4.648438 3.097656 -5.753906 3.328125 -6.640625 L 8.3125 -6.640625 C 8.082031 -7.585938 7.96875 -8.695312 7.96875 -9.96875 C 7.96875 -11.289062 8.082031 -12.394531 8.3125 -13.28125 C 8.082031 -14.226562 7.96875 -15.335938 7.96875 -16.609375 C 7.96875 -17.941406 8.082031 -19.050781 8.3125 -19.9375 C 8.082031 -20.875 7.96875 -21.976562 7.96875 -23.25 C 7.96875 -24.582031 8.082031 -25.691406 8.3125 -26.578125 L 3.328125 -26.578125 C 3.097656 -27.515625 2.984375 -28.617188 2.984375 -29.890625 C 2.984375 -31.222656 3.097656 -32.332031 3.328125 -33.21875 L 11.625 -33.21875 C 11.84375 -32.332031 11.953125 -31.222656 11.953125 -29.890625 C 11.953125 -28.617188 11.84375 -27.515625 11.625 -26.578125 L 14.953125 -26.578125 C 14.722656 -27.515625 14.609375 -28.617188 14.609375 -29.890625 C 14.609375 -31.222656 14.722656 -32.332031 14.953125 -33.21875 L 27.40625 -33.21875 C 27.625 -32.332031 27.734375 -31.222656 27.734375 -29.890625 C 27.734375 -28.617188 27.625 -27.515625 27.40625 -26.578125 Z M 29.890625 -26.578125 "/></g></g></g><g fill="#ed4461" fill-opacity="1"><g transform="translate(520.674529, 511.931463)"><g><path d="M 26.578125 -6.640625 C 26.796875 -5.753906 26.90625 -4.648438 26.90625 -3.328125 C 26.90625 -2.046875 26.796875 -0.9375 26.578125 0 L 6.640625 0 C 6.421875 -0.9375 6.3125 -2.046875 6.3125 -3.328125 C 6.3125 -4.648438 6.421875 -5.753906 6.640625 -6.640625 L 13.28125 -6.640625 C 13.0625 -7.585938 12.953125 -8.695312 12.953125 -9.96875 C 12.953125 -11.289062 13.0625 -12.394531 13.28125 -13.28125 C 13.0625 -14.226562 12.953125 -15.335938 12.953125 -16.609375 C 12.953125 -17.941406 13.0625 -19.050781 13.28125 -19.9375 C 13.0625 -20.875 12.953125 -21.976562 12.953125 -23.25 C 12.953125 -24.582031 13.0625 -25.691406 13.28125 -26.578125 C 13.0625 -27.515625 12.953125 -28.617188 12.953125 -29.890625 C 12.953125 -31.222656 13.0625 -32.332031 13.28125 -33.21875 C 13.0625 -34.15625 12.953125 -35.265625 12.953125 -36.546875 C 12.953125 -37.867188 13.0625 -38.972656 13.28125 -39.859375 L 8.3125 -39.859375 C 8.082031 -40.804688 7.96875 -41.914062 7.96875 -43.1875 C 7.96875 -44.507812 8.082031 -45.613281 8.3125 -46.5 L 19.9375 -46.5 C 20.15625 -45.613281 20.265625 -44.507812 20.265625 -43.1875 C 20.265625 -41.914062 20.15625 -40.804688 19.9375 -39.859375 C 20.15625 -38.972656 20.265625 -37.867188 20.265625 -36.546875 C 20.265625 -35.265625 20.15625 -34.15625 19.9375 -33.21875 C 20.15625 -32.332031 20.265625 -31.222656 20.265625 -29.890625 C 20.265625 -28.617188 20.15625 -27.515625 19.9375 -26.578125 C 20.15625 -25.691406 20.265625 -24.582031 20.265625 -23.25 C 20.265625 -21.976562 20.15625 -20.875 19.9375 -19.9375 C 20.15625 -19.050781 20.265625 -17.941406 20.265625 -16.609375 C 20.265625 -15.335938 20.15625 -14.226562 19.9375 -13.28125 C 20.15625 -12.394531 20.265625 -11.289062 20.265625 -9.96875 C 20.265625 -8.695312 20.15625 -7.585938 19.9375 -6.640625 Z M 26.578125 -6.640625 "/></g></g></g><g fill="#ed4461" fill-opacity="1"><g transform="translate(553.895394, 511.931463)"><g><path d="M 29.890625 -39.859375 C 30.117188 -38.972656 30.234375 -37.867188 30.234375 -36.546875 C 30.234375 -35.265625 30.117188 -34.15625 29.890625 -33.21875 C 30.117188 -32.332031 30.234375 -31.222656 30.234375 -29.890625 C 30.234375 -28.617188 30.117188 -27.515625 29.890625 -26.578125 C 30.117188 -25.691406 30.234375 -24.582031 30.234375 -23.25 C 30.234375 -21.976562 30.117188 -20.875 29.890625 -19.9375 C 30.117188 -19.050781 30.234375 -17.941406 30.234375 -16.609375 C 30.234375 -15.335938 30.117188 -14.226562 29.890625 -13.28125 C 30.117188 -12.394531 30.234375 -11.289062 30.234375 -9.96875 C 30.234375 -8.695312 30.117188 -7.585938 29.890625 -6.640625 C 30.117188 -5.753906 30.234375 -4.648438 30.234375 -3.328125 C 30.234375 -2.046875 30.117188 -0.9375 29.890625 0 L 23.25 0 C 23.03125 -0.9375 22.921875 -2.046875 22.921875 -3.328125 C 22.921875 -4.648438 23.03125 -5.753906 23.25 -6.640625 L 20.765625 -6.640625 C 20.535156 -7.585938 20.421875 -8.695312 20.421875 -9.96875 C 20.421875 -11.289062 20.535156 -12.394531 20.765625 -13.28125 L 23.25 -13.28125 C 23.03125 -14.226562 22.921875 -15.335938 22.921875 -16.609375 C 22.921875 -17.941406 23.03125 -19.050781 23.25 -19.9375 L 20.765625 -19.9375 C 20.535156 -20.875 20.421875 -21.976562 20.421875 -23.25 C 20.421875 -24.582031 20.535156 -25.691406 20.765625 -26.578125 L 23.25 -26.578125 C 23.03125 -27.515625 22.921875 -28.617188 22.921875 -29.890625 C 22.921875 -31.222656 23.03125 -32.332031 23.25 -33.21875 C 23.03125 -34.15625 22.921875 -35.265625 22.921875 -36.546875 C 22.921875 -37.867188 23.03125 -38.972656 23.25 -39.859375 C 23.03125 -40.804688 22.921875 -41.914062 22.921875 -43.1875 C 22.921875 -44.507812 23.03125 -45.613281 23.25 -46.5 L 29.890625 -46.5 C 30.117188 -45.613281 30.234375 -44.507812 30.234375 -43.1875 C 30.234375 -41.914062 30.117188 -40.804688 29.890625 -39.859375 Z M 19.4375 -29.890625 C 19.4375 -28.617188 19.320312 -27.515625 19.09375 -26.578125 L 10.796875 -26.578125 C 11.015625 -25.691406 11.125 -24.582031 11.125 -23.25 C 11.125 -21.976562 11.015625 -20.875 10.796875 -19.9375 L 8.3125 -19.9375 C 8.53125 -19.050781 8.640625 -17.941406 8.640625 -16.609375 C 8.640625 -15.335938 8.53125 -14.226562 8.3125 -13.28125 L 10.796875 -13.28125 C 11.015625 -12.394531 11.125 -11.289062 11.125 -9.96875 C 11.125 -8.695312 11.015625 -7.585938 10.796875 -6.640625 L 19.09375 -6.640625 C 19.320312 -5.753906 19.4375 -4.648438 19.4375 -3.328125 C 19.4375 -2.046875 19.320312 -0.9375 19.09375 0 L 9.96875 0 C 9.75 -0.9375 9.640625 -2.046875 9.640625 -3.328125 C 9.640625 -4.648438 9.75 -5.753906 9.96875 -6.640625 L 5.8125 -6.640625 C 5.59375 -7.585938 5.484375 -8.695312 5.484375 -9.96875 C 5.484375 -11.289062 5.59375 -12.394531 5.8125 -13.28125 L 3.328125 -13.28125 C 3.097656 -14.226562 2.984375 -15.335938 2.984375 -16.609375 C 2.984375 -17.941406 3.097656 -19.050781 3.328125 -19.9375 L 5.8125 -19.9375 C 5.59375 -20.875 5.484375 -21.976562 5.484375 -23.25 C 5.484375 -24.582031 5.59375 -25.691406 5.8125 -26.578125 L 9.96875 -26.578125 C 9.75 -27.515625 9.640625 -28.617188 9.640625 -29.890625 C 9.640625 -31.222656 9.75 -32.332031 9.96875 -33.21875 L 19.09375 -33.21875 C 19.320312 -32.332031 19.4375 -31.222656 19.4375 -29.890625 Z M 19.4375 -29.890625 "/></g></g></g><g fill="#ed4461" fill-opacity="1"><g transform="translate(587.11626, 511.931463)"><g><path d="M 19.9375 -39.859375 C 20.15625 -38.972656 20.265625 -37.867188 20.265625 -36.546875 C 20.265625 -35.265625 20.15625 -34.15625 19.9375 -33.21875 C 20.15625 -32.332031 20.265625 -31.222656 20.265625 -29.890625 C 20.265625 -28.617188 20.15625 -27.515625 19.9375 -26.578125 C 20.15625 -25.691406 20.265625 -24.582031 20.265625 -23.25 C 20.265625 -21.976562 20.15625 -20.875 19.9375 -19.9375 C 20.15625 -19.050781 20.265625 -17.941406 20.265625 -16.609375 C 20.265625 -15.335938 20.15625 -14.226562 19.9375 -13.28125 L 13.28125 -13.28125 C 13.0625 -14.226562 12.953125 -15.335938 12.953125 -16.609375 C 12.953125 -17.941406 13.0625 -19.050781 13.28125 -19.9375 C 13.0625 -20.875 12.953125 -21.976562 12.953125 -23.25 C 12.953125 -24.582031 13.0625 -25.691406 13.28125 -26.578125 C 13.0625 -27.515625 12.953125 -28.617188 12.953125 -29.890625 C 12.953125 -31.222656 13.0625 -32.332031 13.28125 -33.21875 C 13.0625 -34.15625 12.953125 -35.265625 12.953125 -36.546875 C 12.953125 -37.867188 13.0625 -38.972656 13.28125 -39.859375 C 13.0625 -40.804688 12.953125 -41.914062 12.953125 -43.1875 C 12.953125 -44.507812 13.0625 -45.613281 13.28125 -46.5 L 19.9375 -46.5 C 20.15625 -45.613281 20.265625 -44.507812 20.265625 -43.1875 C 20.265625 -41.914062 20.15625 -40.804688 19.9375 -39.859375 Z M 19.9375 -6.640625 C 20.15625 -5.753906 20.265625 -4.648438 20.265625 -3.328125 C 20.265625 -2.046875 20.15625 -0.9375 19.9375 0 L 13.28125 0 C 13.0625 -0.9375 12.953125 -2.046875 12.953125 -3.328125 C 12.953125 -4.648438 13.0625 -5.753906 13.28125 -6.640625 Z M 19.9375 -6.640625 "/></g></g></g><g fill="#ed4461" fill-opacity="1"><g transform="translate(620.337125, 511.931463)"><g/></g></g><g fill="#ed4461" fill-opacity="1"><g transform="translate(653.55799, 511.931463)"><g><path d="M 24.921875 -6.640625 C 25.140625 -5.753906 25.25 -4.648438 25.25 -3.328125 C 25.25 -2.046875 25.140625 -0.9375 24.921875 0 L 8.3125 0 C 8.082031 -0.9375 7.96875 -2.046875 7.96875 -3.328125 C 7.96875 -4.648438 8.082031 -5.753906 8.3125 -6.640625 L 13.28125 -6.640625 C 13.0625 -7.585938 12.953125 -8.695312 12.953125 -9.96875 C 12.953125 -11.289062 13.0625 -12.394531 13.28125 -13.28125 C 13.0625 -14.226562 12.953125 -15.335938 12.953125 -16.609375 C 12.953125 -17.941406 13.0625 -19.050781 13.28125 -19.9375 C 13.0625 -20.875 12.953125 -21.976562 12.953125 -23.25 C 12.953125 -24.582031 13.0625 -25.691406 13.28125 -26.578125 C 13.0625 -27.515625 12.953125 -28.617188 12.953125 -29.890625 C 12.953125 -31.222656 13.0625 -32.332031 13.28125 -33.21875 C 13.0625 -34.15625 12.953125 -35.265625 12.953125 -36.546875 C 12.953125 -37.867188 13.0625 -38.972656 13.28125 -39.859375 L 8.3125 -39.859375 C 8.082031 -40.804688 7.96875 -41.914062 7.96875 -43.1875 C 7.96875 -44.507812 8.082031 -45.613281 8.3125 -46.5 L 24.921875 -46.5 C 25.140625 -45.613281 25.25 -44.507812 25.25 -43.1875 C 25.25 -41.914062 25.140625 -40.804688 24.921875 -39.859375 L 19.9375 -39.859375 C 20.15625 -38.972656 20.265625 -37.867188 20.265625 -36.546875 C 20.265625 -35.265625 20.15625 -34.15625 19.9375 -33.21875 C 20.15625 -32.332031 20.265625 -31.222656 20.265625 -29.890625 C 20.265625 -28.617188 20.15625 -27.515625 19.9375 -26.578125 C 20.15625 -25.691406 20.265625 -24.582031 20.265625 -23.25 C 20.265625 -21.976562 20.15625 -20.875 19.9375 -19.9375 C 20.15625 -19.050781 20.265625 -17.941406 20.265625 -16.609375 C 20.265625 -15.335938 20.15625 -14.226562 19.9375 -13.28125 C 20.15625 -12.394531 20.265625 -11.289062 20.265625 -9.96875 C 20.265625 -8.695312 20.15625 -7.585938 19.9375 -6.640625 Z M 24.921875 -6.640625 "/></g></g></g><g fill="#ed4461" fill-opacity="1"><g transform="translate(686.778856, 511.931463)"><g><path d="M 20.765625 -53.15625 C 20.984375 -52.269531 21.09375 -51.160156 21.09375 -49.828125 C 21.09375 -48.554688 20.984375 -47.445312 20.765625 -46.5 C 20.984375 -45.613281 21.09375 -44.507812 21.09375 -43.1875 C 21.09375 -41.914062 20.984375 -40.804688 20.765625 -39.859375 L 17.4375 -39.859375 C 17.65625 -38.972656 17.765625 -37.867188 17.765625 -36.546875 C 17.765625 -35.265625 17.65625 -34.15625 17.4375 -33.21875 L 12.453125 -33.21875 C 12.234375 -34.15625 12.125 -35.265625 12.125 -36.546875 C 12.125 -37.867188 12.234375 -38.972656 12.453125 -39.859375 L 15.78125 -39.859375 C 15.5625 -40.804688 15.453125 -41.914062 15.453125 -43.1875 C 15.453125 -44.507812 15.5625 -45.613281 15.78125 -46.5 L 12.453125 -46.5 C 12.234375 -47.445312 12.125 -48.554688 12.125 -49.828125 C 12.125 -51.160156 12.234375 -52.269531 12.453125 -53.15625 C 12.234375 -54.09375 12.125 -55.195312 12.125 -56.46875 C 12.125 -57.800781 12.234375 -58.910156 12.453125 -59.796875 L 20.765625 -59.796875 C 20.984375 -58.910156 21.09375 -57.800781 21.09375 -56.46875 C 21.09375 -55.195312 20.984375 -54.09375 20.765625 -53.15625 Z M 20.765625 -53.15625 "/></g></g></g><g fill="#ed4461" fill-opacity="1"><g transform="translate(719.999721, 511.931463)"><g><path d="M 7.8125 -29.890625 C 7.8125 -28.617188 7.695312 -27.515625 7.46875 -26.578125 L 9.96875 -26.578125 C 10.1875 -25.691406 10.296875 -24.582031 10.296875 -23.25 C 10.296875 -21.976562 10.1875 -20.875 9.96875 -19.9375 C 10.1875 -19.050781 10.296875 -17.941406 10.296875 -16.609375 C 10.296875 -15.335938 10.1875 -14.226562 9.96875 -13.28125 C 10.1875 -12.394531 10.296875 -11.289062 10.296875 -9.96875 C 10.296875 -8.695312 10.1875 -7.585938 9.96875 -6.640625 C 10.1875 -5.753906 10.296875 -4.648438 10.296875 -3.328125 C 10.296875 -2.046875 10.1875 -0.9375 9.96875 0 L 3.328125 0 C 3.097656 -0.9375 2.984375 -2.046875 2.984375 -3.328125 C 2.984375 -4.648438 3.097656 -5.753906 3.328125 -6.640625 C 3.097656 -7.585938 2.984375 -8.695312 2.984375 -9.96875 C 2.984375 -11.289062 3.097656 -12.394531 3.328125 -13.28125 C 3.097656 -14.226562 2.984375 -15.335938 2.984375 -16.609375 C 2.984375 -17.941406 3.097656 -19.050781 3.328125 -19.9375 C 3.097656 -20.875 2.984375 -21.976562 2.984375 -23.25 C 2.984375 -24.582031 3.097656 -25.691406 3.328125 -26.578125 C 3.097656 -27.515625 2.984375 -28.617188 2.984375 -29.890625 C 2.984375 -31.222656 3.097656 -32.332031 3.328125 -33.21875 L 7.46875 -33.21875 C 7.695312 -32.332031 7.8125 -31.222656 7.8125 -29.890625 Z M 16.9375 -29.890625 C 16.9375 -28.617188 16.828125 -27.515625 16.609375 -26.578125 L 19.09375 -26.578125 C 19.320312 -25.691406 19.4375 -24.582031 19.4375 -23.25 C 19.4375 -21.976562 19.320312 -20.875 19.09375 -19.9375 C 19.320312 -19.050781 19.4375 -17.941406 19.4375 -16.609375 C 19.4375 -15.335938 19.320312 -14.226562 19.09375 -13.28125 C 19.320312 -12.394531 19.4375 -11.289062 19.4375 -9.96875 C 19.4375 -8.695312 19.320312 -7.585938 19.09375 -6.640625 C 19.320312 -5.753906 19.4375 -4.648438 19.4375 -3.328125 C 19.4375 -2.046875 19.320312 -0.9375 19.09375 0 L 14.125 0 C 13.894531 -0.9375 13.78125 -2.046875 13.78125 -3.328125 C 13.78125 -4.648438 13.894531 -5.753906 14.125 -6.640625 C 13.894531 -7.585938 13.78125 -8.695312 13.78125 -9.96875 C 13.78125 -11.289062 13.894531 -12.394531 14.125 -13.28125 C 13.894531 -14.226562 13.78125 -15.335938 13.78125 -16.609375 C 13.78125 -17.941406 13.894531 -19.050781 14.125 -19.9375 C 13.894531 -20.875 13.78125 -21.976562 13.78125 -23.25 C 13.78125 -24.582031 13.894531 -25.691406 14.125 -26.578125 L 9.96875 -26.578125 C 9.75 -27.515625 9.640625 -28.617188 9.640625 -29.890625 C 9.640625 -31.222656 9.75 -32.332031 9.96875 -33.21875 L 16.609375 -33.21875 C 16.828125 -32.332031 16.9375 -31.222656 16.9375 -29.890625 Z M 29.890625 -19.9375 C 30.117188 -19.050781 30.234375 -17.941406 30.234375 -16.609375 C 30.234375 -15.335938 30.117188 -14.226562 29.890625 -13.28125 C 30.117188 -12.394531 30.234375 -11.289062 30.234375 -9.96875 C 30.234375 -8.695312 30.117188 -7.585938 29.890625 -6.640625 C 30.117188 -5.753906 30.234375 -4.648438 30.234375 -3.328125 C 30.234375 -2.046875 30.117188 -0.9375 29.890625 0 L 23.25 0 C 23.03125 -0.9375 22.921875 -2.046875 22.921875 -3.328125 C 22.921875 -4.648438 23.03125 -5.753906 23.25 -6.640625 C 23.03125 -7.585938 22.921875 -8.695312 22.921875 -9.96875 C 22.921875 -11.289062 23.03125 -12.394531 23.25 -13.28125 C 23.03125 -14.226562 22.921875 -15.335938 22.921875 -16.609375 C 22.921875 -17.941406 23.03125 -19.050781 23.25 -19.9375 C 23.03125 -20.875 22.921875 -21.976562 22.921875 -23.25 C 22.921875 -24.582031 23.03125 -25.691406 23.25 -26.578125 L 19.09375 -26.578125 C 18.875 -27.515625 18.765625 -28.617188 18.765625 -29.890625 C 18.765625 -31.222656 18.875 -32.332031 19.09375 -33.21875 L 26.578125 -33.21875 C 26.796875 -32.332031 26.90625 -31.222656 26.90625 -29.890625 C 26.90625 -28.617188 26.796875 -27.515625 26.578125 -26.578125 L 29.890625 -26.578125 C 30.117188 -25.691406 30.234375 -24.582031 30.234375 -23.25 C 30.234375 -21.976562 30.117188 -20.875 29.890625 -19.9375 Z M 29.890625 -19.9375 "/></g></g></g><g fill="#ed4461" fill-opacity="1"><g transform="translate(753.220586, 511.931463)"><g/></g></g><g fill="#ed4461" fill-opacity="1"><g transform="translate(786.441452, 511.931463)"><g><path d="M 24.921875 -6.640625 C 25.140625 -5.753906 25.25 -4.648438 25.25 -3.328125 C 25.25 -2.046875 25.140625 -0.9375 24.921875 0 L 8.3125 0 C 8.082031 -0.9375 7.96875 -2.046875 7.96875 -3.328125 C 7.96875 -4.648438 8.082031 -5.753906 8.3125 -6.640625 L 13.28125 -6.640625 C 13.0625 -7.585938 12.953125 -8.695312 12.953125 -9.96875 C 12.953125 -11.289062 13.0625 -12.394531 13.28125 -13.28125 C 13.0625 -14.226562 12.953125 -15.335938 12.953125 -16.609375 C 12.953125 -17.941406 13.0625 -19.050781 13.28125 -19.9375 C 13.0625 -20.875 12.953125 -21.976562 12.953125 -23.25 C 12.953125 -24.582031 13.0625 -25.691406 13.28125 -26.578125 C 13.0625 -27.515625 12.953125 -28.617188 12.953125 -29.890625 C 12.953125 -31.222656 13.0625 -32.332031 13.28125 -33.21875 C 13.0625 -34.15625 12.953125 -35.265625 12.953125 -36.546875 C 12.953125 -37.867188 13.0625 -38.972656 13.28125 -39.859375 L 8.3125 -39.859375 C 8.082031 -40.804688 7.96875 -41.914062 7.96875 -43.1875 C 7.96875 -44.507812 8.082031 -45.613281 8.3125 -46.5 L 24.921875 -46.5 C 25.140625 -45.613281 25.25 -44.507812 25.25 -43.1875 C 25.25 -41.914062 25.140625 -40.804688 24.921875 -39.859375 L 19.9375 -39.859375 C 20.15625 -38.972656 20.265625 -37.867188 20.265625 -36.546875 C 20.265625 -35.265625 20.15625 -34.15625 19.9375 -33.21875 C 20.15625 -32.332031 20.265625 -31.222656 20.265625 -29.890625 C 20.265625 -28.617188 20.15625 -27.515625 19.9375 -26.578125 C 20.15625 -25.691406 20.265625 -24.582031 20.265625 -23.25 C 20.265625 -21.976562 20.15625 -20.875 19.9375 -19.9375 C 20.15625 -19.050781 20.265625 -17.941406 20.265625 -16.609375 C 20.265625 -15.335938 20.15625 -14.226562 19.9375 -13.28125 C 20.15625 -12.394531 20.265625 -11.289062 20.265625 -9.96875 C 20.265625 -8.695312 20.15625 -7.585938 19.9375 -6.640625 Z M 24.921875 -6.640625 "/></g></g></g><g fill="#ed4461" fill-opacity="1"><g transform="translate(819.662317, 511.931463)"><g><path d="M 29.890625 -6.640625 C 30.117188 -5.753906 30.234375 -4.648438 30.234375 -3.328125 C 30.234375 -2.046875 30.117188 -0.9375 29.890625 0 L 23.25 0 C 23.03125 -0.9375 22.921875 -2.046875 22.921875 -3.328125 C 22.921875 -4.648438 23.03125 -5.753906 23.25 -6.640625 L 19.9375 -6.640625 C 19.707031 -7.585938 19.59375 -8.695312 19.59375 -9.96875 C 19.59375 -11.289062 19.707031 -12.394531 19.9375 -13.28125 L 9.96875 -13.28125 C 10.1875 -12.394531 10.296875 -11.289062 10.296875 -9.96875 C 10.296875 -8.695312 10.1875 -7.585938 9.96875 -6.640625 L 19.9375 -6.640625 C 20.15625 -5.753906 20.265625 -4.648438 20.265625 -3.328125 C 20.265625 -2.046875 20.15625 -0.9375 19.9375 0 L 6.640625 0 C 6.421875 -0.9375 6.3125 -2.046875 6.3125 -3.328125 C 6.3125 -4.648438 6.421875 -5.753906 6.640625 -6.640625 L 3.328125 -6.640625 C 3.097656 -7.585938 2.984375 -8.695312 2.984375 -9.96875 C 2.984375 -11.289062 3.097656 -12.394531 3.328125 -13.28125 L 6.640625 -13.28125 C 6.421875 -14.226562 6.3125 -15.335938 6.3125 -16.609375 C 6.3125 -17.941406 6.421875 -19.050781 6.640625 -19.9375 L 19.9375 -19.9375 C 19.707031 -20.875 19.59375 -21.976562 19.59375 -23.25 C 19.59375 -24.582031 19.707031 -25.691406 19.9375 -26.578125 L 8.3125 -26.578125 C 8.082031 -27.515625 7.96875 -28.617188 7.96875 -29.890625 C 7.96875 -31.222656 8.082031 -32.332031 8.3125 -33.21875 L 23.25 -33.21875 C 23.46875 -32.332031 23.578125 -31.222656 23.578125 -29.890625 C 23.578125 -28.617188 23.46875 -27.515625 23.25 -26.578125 L 26.578125 -26.578125 C 26.796875 -25.691406 26.90625 -24.582031 26.90625 -23.25 C 26.90625 -21.976562 26.796875 -20.875 26.578125 -19.9375 C 26.796875 -19.050781 26.90625 -17.941406 26.90625 -16.609375 C 26.90625 -15.335938 26.796875 -14.226562 26.578125 -13.28125 C 26.796875 -12.394531 26.90625 -11.289062 26.90625 -9.96875 C 26.90625 -8.695312 26.796875 -7.585938 26.578125 -6.640625 Z M 29.890625 -6.640625 "/></g></g></g><g fill="#ed4461" fill-opacity="1"><g transform="translate(852.883183, 511.931463)"><g><path d="M 28.5625 -9.96875 C 28.5625 -8.695312 28.453125 -7.585938 28.234375 -6.640625 L 24.921875 -6.640625 C 25.140625 -5.753906 25.25 -4.648438 25.25 -3.328125 C 25.25 -2.046875 25.140625 -0.9375 24.921875 0 L 6.640625 0 C 6.421875 -0.9375 6.3125 -2.046875 6.3125 -3.328125 C 6.3125 -4.648438 6.421875 -5.753906 6.640625 -6.640625 L 21.59375 -6.640625 C 21.375 -7.585938 21.265625 -8.695312 21.265625 -9.96875 C 21.265625 -11.289062 21.375 -12.394531 21.59375 -13.28125 L 8.3125 -13.28125 C 8.082031 -14.226562 7.96875 -15.335938 7.96875 -16.609375 C 7.96875 -17.941406 8.082031 -19.050781 8.3125 -19.9375 L 4.984375 -19.9375 C 4.765625 -20.875 4.65625 -21.976562 4.65625 -23.25 C 4.65625 -24.582031 4.765625 -25.691406 4.984375 -26.578125 L 8.3125 -26.578125 C 8.082031 -27.515625 7.96875 -28.617188 7.96875 -29.890625 C 7.96875 -31.222656 8.082031 -32.332031 8.3125 -33.21875 L 26.578125 -33.21875 C 26.796875 -32.332031 26.90625 -31.222656 26.90625 -29.890625 C 26.90625 -28.617188 26.796875 -27.515625 26.578125 -26.578125 L 11.625 -26.578125 C 11.84375 -25.691406 11.953125 -24.582031 11.953125 -23.25 C 11.953125 -21.976562 11.84375 -20.875 11.625 -19.9375 L 24.921875 -19.9375 C 25.140625 -19.050781 25.25 -17.941406 25.25 -16.609375 C 25.25 -15.335938 25.140625 -14.226562 24.921875 -13.28125 L 28.234375 -13.28125 C 28.453125 -12.394531 28.5625 -11.289062 28.5625 -9.96875 Z M 28.5625 -9.96875 "/></g></g></g><g fill="#ed4461" fill-opacity="1"><g transform="translate(886.104048, 511.931463)"><g><path d="M 7.8125 -29.890625 C 7.8125 -28.617188 7.695312 -27.515625 7.46875 -26.578125 L 9.96875 -26.578125 C 10.1875 -25.691406 10.296875 -24.582031 10.296875 -23.25 C 10.296875 -21.976562 10.1875 -20.875 9.96875 -19.9375 C 10.1875 -19.050781 10.296875 -17.941406 10.296875 -16.609375 C 10.296875 -15.335938 10.1875 -14.226562 9.96875 -13.28125 C 10.1875 -12.394531 10.296875 -11.289062 10.296875 -9.96875 C 10.296875 -8.695312 10.1875 -7.585938 9.96875 -6.640625 C 10.1875 -5.753906 10.296875 -4.648438 10.296875 -3.328125 C 10.296875 -2.046875 10.1875 -0.9375 9.96875 0 L 3.328125 0 C 3.097656 -0.9375 2.984375 -2.046875 2.984375 -3.328125 C 2.984375 -4.648438 3.097656 -5.753906 3.328125 -6.640625 C 3.097656 -7.585938 2.984375 -8.695312 2.984375 -9.96875 C 2.984375 -11.289062 3.097656 -12.394531 3.328125 -13.28125 C 3.097656 -14.226562 2.984375 -15.335938 2.984375 -16.609375 C 2.984375 -17.941406 3.097656 -19.050781 3.328125 -19.9375 C 3.097656 -20.875 2.984375 -21.976562 2.984375 -23.25 C 2.984375 -24.582031 3.097656 -25.691406 3.328125 -26.578125 C 3.097656 -27.515625 2.984375 -28.617188 2.984375 -29.890625 C 2.984375 -31.222656 3.097656 -32.332031 3.328125 -33.21875 L 7.46875 -33.21875 C 7.695312 -32.332031 7.8125 -31.222656 7.8125 -29.890625 Z M 16.9375 -29.890625 C 16.9375 -28.617188 16.828125 -27.515625 16.609375 -26.578125 L 19.09375 -26.578125 C 19.320312 -25.691406 19.4375 -24.582031 19.4375 -23.25 C 19.4375 -21.976562 19.320312 -20.875 19.09375 -19.9375 C 19.320312 -19.050781 19.4375 -17.941406 19.4375 -16.609375 C 19.4375 -15.335938 19.320312 -14.226562 19.09375 -13.28125 C 19.320312 -12.394531 19.4375 -11.289062 19.4375 -9.96875 C 19.4375 -8.695312 19.320312 -7.585938 19.09375 -6.640625 C 19.320312 -5.753906 19.4375 -4.648438 19.4375 -3.328125 C 19.4375 -2.046875 19.320312 -0.9375 19.09375 0 L 14.125 0 C 13.894531 -0.9375 13.78125 -2.046875 13.78125 -3.328125 C 13.78125 -4.648438 13.894531 -5.753906 14.125 -6.640625 C 13.894531 -7.585938 13.78125 -8.695312 13.78125 -9.96875 C 13.78125 -11.289062 13.894531 -12.394531 14.125 -13.28125 C 13.894531 -14.226562 13.78125 -15.335938 13.78125 -16.609375 C 13.78125 -17.941406 13.894531 -19.050781 14.125 -19.9375 C 13.894531 -20.875 13.78125 -21.976562 13.78125 -23.25 C 13.78125 -24.582031 13.894531 -25.691406 14.125 -26.578125 L 9.96875 -26.578125 C 9.75 -27.515625 9.640625 -28.617188 9.640625 -29.890625 C 9.640625 -31.222656 9.75 -32.332031 9.96875 -33.21875 L 16.609375 -33.21875 C 16.828125 -32.332031 16.9375 -31.222656 16.9375 -29.890625 Z M 29.890625 -19.9375 C 30.117188 -19.050781 30.234375 -17.941406 30.234375 -16.609375 C 30.234375 -15.335938 30.117188 -14.226562 29.890625 -13.28125 C 30.117188 -12.394531 30.234375 -11.289062 30.234375 -9.96875 C 30.234375 -8.695312 30.117188 -7.585938 29.890625 -6.640625 C 30.117188 -5.753906 30.234375 -4.648438 30.234375 -3.328125 C 30.234375 -2.046875 30.117188 -0.9375 29.890625 0 L 23.25 0 C 23.03125 -0.9375 22.921875 -2.046875 22.921875 -3.328125 C 22.921875 -4.648438 23.03125 -5.753906 23.25 -6.640625 C 23.03125 -7.585938 22.921875 -8.695312 22.921875 -9.96875 C 22.921875 -11.289062 23.03125 -12.394531 23.25 -13.28125 C 23.03125 -14.226562 22.921875 -15.335938 22.921875 -16.609375 C 22.921875 -17.941406 23.03125 -19.050781 23.25 -19.9375 C 23.03125 -20.875 22.921875 -21.976562 22.921875 -23.25 C 22.921875 -24.582031 23.03125 -25.691406 23.25 -26.578125 L 19.09375 -26.578125 C 18.875 -27.515625 18.765625 -28.617188 18.765625 -29.890625 C 18.765625 -31.222656 18.875 -32.332031 19.09375 -33.21875 L 26.578125 -33.21875 C 26.796875 -32.332031 26.90625 -31.222656 26.90625 -29.890625 C 26.90625 -28.617188 26.796875 -27.515625 26.578125 -26.578125 L 29.890625 -26.578125 C 30.117188 -25.691406 30.234375 -24.582031 30.234375 -23.25 C 30.234375 -21.976562 30.117188 -20.875 29.890625 -19.9375 Z M 29.890625 -19.9375 "/></g></g></g><g fill="#ed4461" fill-opacity="1"><g transform="translate(919.324913, 511.931463)"><g><path d="M 13.28125 -39.859375 C 13.0625 -40.804688 12.953125 -41.914062 12.953125 -43.1875 C 12.953125 -44.507812 13.0625 -45.613281 13.28125 -46.5 L 19.9375 -46.5 C 20.15625 -45.613281 20.265625 -44.507812 20.265625 -43.1875 C 20.265625 -41.914062 20.15625 -40.804688 19.9375 -39.859375 Z M 26.578125 -6.640625 C 26.796875 -5.753906 26.90625 -4.648438 26.90625 -3.328125 C 26.90625 -2.046875 26.796875 -0.9375 26.578125 0 L 6.640625 0 C 6.421875 -0.9375 6.3125 -2.046875 6.3125 -3.328125 C 6.3125 -4.648438 6.421875 -5.753906 6.640625 -6.640625 L 13.28125 -6.640625 C 13.0625 -7.585938 12.953125 -8.695312 12.953125 -9.96875 C 12.953125 -11.289062 13.0625 -12.394531 13.28125 -13.28125 C 13.0625 -14.226562 12.953125 -15.335938 12.953125 -16.609375 C 12.953125 -17.941406 13.0625 -19.050781 13.28125 -19.9375 C 13.0625 -20.875 12.953125 -21.976562 12.953125 -23.25 C 12.953125 -24.582031 13.0625 -25.691406 13.28125 -26.578125 L 8.3125 -26.578125 C 8.082031 -27.515625 7.96875 -28.617188 7.96875 -29.890625 C 7.96875 -31.222656 8.082031 -32.332031 8.3125 -33.21875 L 19.9375 -33.21875 C 20.15625 -32.332031 20.265625 -31.222656 20.265625 -29.890625 C 20.265625 -28.617188 20.15625 -27.515625 19.9375 -26.578125 C 20.15625 -25.691406 20.265625 -24.582031 20.265625 -23.25 C 20.265625 -21.976562 20.15625 -20.875 19.9375 -19.9375 C 20.15625 -19.050781 20.265625 -17.941406 20.265625 -16.609375 C 20.265625 -15.335938 20.15625 -14.226562 19.9375 -13.28125 C 20.15625 -12.394531 20.265625 -11.289062 20.265625 -9.96875 C 20.265625 -8.695312 20.15625 -7.585938 19.9375 -6.640625 Z M 26.578125 -6.640625 "/></g></g></g><g fill="#ed4461" fill-opacity="1"><g transform="translate(952.545779, 511.931463)"><g><path d="M 9.46875 -29.890625 C 9.46875 -28.617188 9.359375 -27.515625 9.140625 -26.578125 L 12.453125 -26.578125 C 12.679688 -25.691406 12.796875 -24.582031 12.796875 -23.25 C 12.796875 -21.976562 12.679688 -20.875 12.453125 -19.9375 L 9.96875 -19.9375 C 10.1875 -19.050781 10.296875 -17.941406 10.296875 -16.609375 C 10.296875 -15.335938 10.1875 -14.226562 9.96875 -13.28125 C 10.1875 -12.394531 10.296875 -11.289062 10.296875 -9.96875 C 10.296875 -8.695312 10.1875 -7.585938 9.96875 -6.640625 C 10.1875 -5.753906 10.296875 -4.648438 10.296875 -3.328125 C 10.296875 -2.046875 10.1875 -0.9375 9.96875 0 L 3.328125 0 C 3.097656 -0.9375 2.984375 -2.046875 2.984375 -3.328125 C 2.984375 -4.648438 3.097656 -5.753906 3.328125 -6.640625 C 3.097656 -7.585938 2.984375 -8.695312 2.984375 -9.96875 C 2.984375 -11.289062 3.097656 -12.394531 3.328125 -13.28125 C 3.097656 -14.226562 2.984375 -15.335938 2.984375 -16.609375 C 2.984375 -17.941406 3.097656 -19.050781 3.328125 -19.9375 C 3.097656 -20.875 2.984375 -21.976562 2.984375 -23.25 C 2.984375 -24.582031 3.097656 -25.691406 3.328125 -26.578125 C 3.097656 -27.515625 2.984375 -28.617188 2.984375 -29.890625 C 2.984375 -31.222656 3.097656 -32.332031 3.328125 -33.21875 L 9.140625 -33.21875 C 9.359375 -32.332031 9.46875 -31.222656 9.46875 -29.890625 Z M 29.890625 -19.9375 C 30.117188 -19.050781 30.234375 -17.941406 30.234375 -16.609375 C 30.234375 -15.335938 30.117188 -14.226562 29.890625 -13.28125 C 30.117188 -12.394531 30.234375 -11.289062 30.234375 -9.96875 C 30.234375 -8.695312 30.117188 -7.585938 29.890625 -6.640625 C 30.117188 -5.753906 30.234375 -4.648438 30.234375 -3.328125 C 30.234375 -2.046875 30.117188 -0.9375 29.890625 0 L 23.25 0 C 23.03125 -0.9375 22.921875 -2.046875 22.921875 -3.328125 C 22.921875 -4.648438 23.03125 -5.753906 23.25 -6.640625 C 23.03125 -7.585938 22.921875 -8.695312 22.921875 -9.96875 C 22.921875 -11.289062 23.03125 -12.394531 23.25 -13.28125 C 23.03125 -14.226562 22.921875 -15.335938 22.921875 -16.609375 C 22.921875 -17.941406 23.03125 -19.050781 23.25 -19.9375 C 23.03125 -20.875 22.921875 -21.976562 22.921875 -23.25 C 22.921875 -24.582031 23.03125 -25.691406 23.25 -26.578125 L 12.453125 -26.578125 C 12.234375 -27.515625 12.125 -28.617188 12.125 -29.890625 C 12.125 -31.222656 12.234375 -32.332031 12.453125 -33.21875 L 25.75 -33.21875 C 25.96875 -32.332031 26.078125 -31.222656 26.078125 -29.890625 C 26.078125 -28.617188 25.96875 -27.515625 25.75 -26.578125 L 29.890625 -26.578125 C 30.117188 -25.691406 30.234375 -24.582031 30.234375 -23.25 C 30.234375 -21.976562 30.117188 -20.875 29.890625 -19.9375 Z M 29.890625 -19.9375 "/></g></g></g><g fill="#ed4461" fill-opacity="1"><g transform="translate(985.766644, 511.931463)"><g/></g></g><g fill="#ed4461" fill-opacity="1"><g transform="translate(1018.987509, 511.931463)"><g><path d="M 30.234375 -29.890625 C 30.234375 -28.617188 30.117188 -27.515625 29.890625 -26.578125 L 26.578125 -26.578125 C 26.796875 -25.691406 26.90625 -24.582031 26.90625 -23.25 C 26.90625 -21.976562 26.796875 -20.875 26.578125 -19.9375 L 29.890625 -19.9375 C 30.117188 -19.050781 30.234375 -17.941406 30.234375 -16.609375 C 30.234375 -15.335938 30.117188 -14.226562 29.890625 -13.28125 C 30.117188 -12.394531 30.234375 -11.289062 30.234375 -9.96875 C 30.234375 -8.695312 30.117188 -7.585938 29.890625 -6.640625 L 26.578125 -6.640625 C 26.796875 -5.753906 26.90625 -4.648438 26.90625 -3.328125 C 26.90625 -2.046875 26.796875 -0.9375 26.578125 0 L 3.328125 0 C 3.097656 -0.9375 2.984375 -2.046875 2.984375 -3.328125 C 2.984375 -4.648438 3.097656 -5.753906 3.328125 -6.640625 C 3.097656 -7.585938 2.984375 -8.695312 2.984375 -9.96875 C 2.984375 -11.289062 3.097656 -12.394531 3.328125 -13.28125 C 3.097656 -14.226562 2.984375 -15.335938 2.984375 -16.609375 C 2.984375 -17.941406 3.097656 -19.050781 3.328125 -19.9375 C 3.097656 -20.875 2.984375 -21.976562 2.984375 -23.25 C 2.984375 -24.582031 3.097656 -25.691406 3.328125 -26.578125 C 3.097656 -27.515625 2.984375 -28.617188 2.984375 -29.890625 C 2.984375 -31.222656 3.097656 -32.332031 3.328125 -33.21875 C 3.097656 -34.15625 2.984375 -35.265625 2.984375 -36.546875 C 2.984375 -37.867188 3.097656 -38.972656 3.328125 -39.859375 C 3.097656 -40.804688 2.984375 -41.914062 2.984375 -43.1875 C 2.984375 -44.507812 3.097656 -45.613281 3.328125 -46.5 L 26.578125 -46.5 C 26.796875 -45.613281 26.90625 -44.507812 26.90625 -43.1875 C 26.90625 -41.914062 26.796875 -40.804688 26.578125 -39.859375 L 29.890625 -39.859375 C 30.117188 -38.972656 30.234375 -37.867188 30.234375 -36.546875 C 30.234375 -35.265625 30.117188 -34.15625 29.890625 -33.21875 C 30.117188 -32.332031 30.234375 -31.222656 30.234375 -29.890625 Z M 23.25 -26.578125 C 23.03125 -27.515625 22.921875 -28.617188 22.921875 -29.890625 C 22.921875 -31.222656 23.03125 -32.332031 23.25 -33.21875 C 23.03125 -34.15625 22.921875 -35.265625 22.921875 -36.546875 C 22.921875 -37.867188 23.03125 -38.972656 23.25 -39.859375 L 9.96875 -39.859375 C 10.1875 -38.972656 10.296875 -37.867188 10.296875 -36.546875 C 10.296875 -35.265625 10.1875 -34.15625 9.96875 -33.21875 C 10.1875 -32.332031 10.296875 -31.222656 10.296875 -29.890625 C 10.296875 -28.617188 10.1875 -27.515625 9.96875 -26.578125 Z M 23.25 -13.28125 C 23.03125 -14.226562 22.921875 -15.335938 22.921875 -16.609375 C 22.921875 -17.941406 23.03125 -19.050781 23.25 -19.9375 L 9.96875 -19.9375 C 10.1875 -19.050781 10.296875 -17.941406 10.296875 -16.609375 C 10.296875 -15.335938 10.1875 -14.226562 9.96875 -13.28125 C 10.1875 -12.394531 10.296875 -11.289062 10.296875 -9.96875 C 10.296875 -8.695312 10.1875 -7.585938 9.96875 -6.640625 L 23.25 -6.640625 C 23.03125 -7.585938 22.921875 -8.695312 22.921875 -9.96875 C 22.921875 -11.289062 23.03125 -12.394531 23.25 -13.28125 Z M 23.25 -13.28125 "/></g></g></g><g fill="#ed4461" fill-opacity="1"><g transform="translate(1052.208375, 511.931463)"><g><path d="M 30.234375 -16.609375 C 30.234375 -15.335938 30.117188 -14.226562 29.890625 -13.28125 L 27.40625 -13.28125 C 27.625 -12.394531 27.734375 -11.289062 27.734375 -9.96875 C 27.734375 -8.695312 27.625 -7.585938 27.40625 -6.640625 L 23.25 -6.640625 C 23.46875 -5.753906 23.578125 -4.648438 23.578125 -3.328125 C 23.578125 -2.046875 23.46875 -0.9375 23.25 0 L 9.96875 0 C 9.75 -0.9375 9.640625 -2.046875 9.640625 -3.328125 C 9.640625 -4.648438 9.75 -5.753906 9.96875 -6.640625 L 5.8125 -6.640625 C 5.59375 -7.585938 5.484375 -8.695312 5.484375 -9.96875 C 5.484375 -11.289062 5.59375 -12.394531 5.8125 -13.28125 L 3.328125 -13.28125 C 3.097656 -14.226562 2.984375 -15.335938 2.984375 -16.609375 C 2.984375 -17.941406 3.097656 -19.050781 3.328125 -19.9375 L 5.8125 -19.9375 C 5.59375 -20.875 5.484375 -21.976562 5.484375 -23.25 C 5.484375 -24.582031 5.59375 -25.691406 5.8125 -26.578125 L 9.96875 -26.578125 C 9.75 -27.515625 9.640625 -28.617188 9.640625 -29.890625 C 9.640625 -31.222656 9.75 -32.332031 9.96875 -33.21875 L 23.25 -33.21875 C 23.46875 -32.332031 23.578125 -31.222656 23.578125 -29.890625 C 23.578125 -28.617188 23.46875 -27.515625 23.25 -26.578125 L 27.40625 -26.578125 C 27.625 -25.691406 27.734375 -24.582031 27.734375 -23.25 C 27.734375 -21.976562 27.625 -20.875 27.40625 -19.9375 L 29.890625 -19.9375 C 30.117188 -19.050781 30.234375 -17.941406 30.234375 -16.609375 Z M 23.25 -13.28125 C 23.03125 -14.226562 22.921875 -15.335938 22.921875 -16.609375 C 22.921875 -17.941406 23.03125 -19.050781 23.25 -19.9375 L 20.765625 -19.9375 C 20.535156 -20.875 20.421875 -21.976562 20.421875 -23.25 C 20.421875 -24.582031 20.535156 -25.691406 20.765625 -26.578125 L 12.453125 -26.578125 C 12.679688 -25.691406 12.796875 -24.582031 12.796875 -23.25 C 12.796875 -21.976562 12.679688 -20.875 12.453125 -19.9375 L 9.96875 -19.9375 C 10.1875 -19.050781 10.296875 -17.941406 10.296875 -16.609375 C 10.296875 -15.335938 10.1875 -14.226562 9.96875 -13.28125 L 12.453125 -13.28125 C 12.679688 -12.394531 12.796875 -11.289062 12.796875 -9.96875 C 12.796875 -8.695312 12.679688 -7.585938 12.453125 -6.640625 L 20.765625 -6.640625 C 20.535156 -7.585938 20.421875 -8.695312 20.421875 -9.96875 C 20.421875 -11.289062 20.535156 -12.394531 20.765625 -13.28125 Z M 23.25 -13.28125 "/></g></g></g><g fill="#ed4461" fill-opacity="1"><g transform="translate(1085.42924, 511.931463)"><g><path d="M 29.890625 -26.578125 C 30.117188 -25.691406 30.234375 -24.582031 30.234375 -23.25 C 30.234375 -21.976562 30.117188 -20.875 29.890625 -19.9375 L 23.25 -19.9375 C 23.03125 -20.875 22.921875 -21.976562 22.921875 -23.25 C 22.921875 -24.582031 23.03125 -25.691406 23.25 -26.578125 L 17.4375 -26.578125 C 17.65625 -25.691406 17.765625 -24.582031 17.765625 -23.25 C 17.765625 -21.976562 17.65625 -20.875 17.4375 -19.9375 L 14.953125 -19.9375 C 15.171875 -19.050781 15.28125 -17.941406 15.28125 -16.609375 C 15.28125 -15.335938 15.171875 -14.226562 14.953125 -13.28125 C 15.171875 -12.394531 15.28125 -11.289062 15.28125 -9.96875 C 15.28125 -8.695312 15.171875 -7.585938 14.953125 -6.640625 L 19.9375 -6.640625 C 20.15625 -5.753906 20.265625 -4.648438 20.265625 -3.328125 C 20.265625 -2.046875 20.15625 -0.9375 19.9375 0 L 3.328125 0 C 3.097656 -0.9375 2.984375 -2.046875 2.984375 -3.328125 C 2.984375 -4.648438 3.097656 -5.753906 3.328125 -6.640625 L 8.3125 -6.640625 C 8.082031 -7.585938 7.96875 -8.695312 7.96875 -9.96875 C 7.96875 -11.289062 8.082031 -12.394531 8.3125 -13.28125 C 8.082031 -14.226562 7.96875 -15.335938 7.96875 -16.609375 C 7.96875 -17.941406 8.082031 -19.050781 8.3125 -19.9375 C 8.082031 -20.875 7.96875 -21.976562 7.96875 -23.25 C 7.96875 -24.582031 8.082031 -25.691406 8.3125 -26.578125 L 3.328125 -26.578125 C 3.097656 -27.515625 2.984375 -28.617188 2.984375 -29.890625 C 2.984375 -31.222656 3.097656 -32.332031 3.328125 -33.21875 L 11.625 -33.21875 C 11.84375 -32.332031 11.953125 -31.222656 11.953125 -29.890625 C 11.953125 -28.617188 11.84375 -27.515625 11.625 -26.578125 L 14.953125 -26.578125 C 14.722656 -27.515625 14.609375 -28.617188 14.609375 -29.890625 C 14.609375 -31.222656 14.722656 -32.332031 14.953125 -33.21875 L 27.40625 -33.21875 C 27.625 -32.332031 27.734375 -31.222656 27.734375 -29.890625 C 27.734375 -28.617188 27.625 -27.515625 27.40625 -26.578125 Z M 29.890625 -26.578125 "/></g></g></g><g fill="#ed4461" fill-opacity="1"><g transform="translate(1118.650105, 511.931463)"><g><path d="M 29.890625 -39.859375 C 30.117188 -38.972656 30.234375 -37.867188 30.234375 -36.546875 C 30.234375 -35.265625 30.117188 -34.15625 29.890625 -33.21875 C 30.117188 -32.332031 30.234375 -31.222656 30.234375 -29.890625 C 30.234375 -28.617188 30.117188 -27.515625 29.890625 -26.578125 C 30.117188 -25.691406 30.234375 -24.582031 30.234375 -23.25 C 30.234375 -21.976562 30.117188 -20.875 29.890625 -19.9375 C 30.117188 -19.050781 30.234375 -17.941406 30.234375 -16.609375 C 30.234375 -15.335938 30.117188 -14.226562 29.890625 -13.28125 C 30.117188 -12.394531 30.234375 -11.289062 30.234375 -9.96875 C 30.234375 -8.695312 30.117188 -7.585938 29.890625 -6.640625 C 30.117188 -5.753906 30.234375 -4.648438 30.234375 -3.328125 C 30.234375 -2.046875 30.117188 -0.9375 29.890625 0 L 23.25 0 C 23.03125 -0.9375 22.921875 -2.046875 22.921875 -3.328125 C 22.921875 -4.648438 23.03125 -5.753906 23.25 -6.640625 L 20.765625 -6.640625 C 20.535156 -7.585938 20.421875 -8.695312 20.421875 -9.96875 C 20.421875 -11.289062 20.535156 -12.394531 20.765625 -13.28125 L 23.25 -13.28125 C 23.03125 -14.226562 22.921875 -15.335938 22.921875 -16.609375 C 22.921875 -17.941406 23.03125 -19.050781 23.25 -19.9375 L 20.765625 -19.9375 C 20.535156 -20.875 20.421875 -21.976562 20.421875 -23.25 C 20.421875 -24.582031 20.535156 -25.691406 20.765625 -26.578125 L 23.25 -26.578125 C 23.03125 -27.515625 22.921875 -28.617188 22.921875 -29.890625 C 22.921875 -31.222656 23.03125 -32.332031 23.25 -33.21875 C 23.03125 -34.15625 22.921875 -35.265625 22.921875 -36.546875 C 22.921875 -37.867188 23.03125 -38.972656 23.25 -39.859375 C 23.03125 -40.804688 22.921875 -41.914062 22.921875 -43.1875 C 22.921875 -44.507812 23.03125 -45.613281 23.25 -46.5 L 29.890625 -46.5 C 30.117188 -45.613281 30.234375 -44.507812 30.234375 -43.1875 C 30.234375 -41.914062 30.117188 -40.804688 29.890625 -39.859375 Z M 19.4375 -29.890625 C 19.4375 -28.617188 19.320312 -27.515625 19.09375 -26.578125 L 10.796875 -26.578125 C 11.015625 -25.691406 11.125 -24.582031 11.125 -23.25 C 11.125 -21.976562 11.015625 -20.875 10.796875 -19.9375 L 8.3125 -19.9375 C 8.53125 -19.050781 8.640625 -17.941406 8.640625 -16.609375 C 8.640625 -15.335938 8.53125 -14.226562 8.3125 -13.28125 L 10.796875 -13.28125 C 11.015625 -12.394531 11.125 -11.289062 11.125 -9.96875 C 11.125 -8.695312 11.015625 -7.585938 10.796875 -6.640625 L 19.09375 -6.640625 C 19.320312 -5.753906 19.4375 -4.648438 19.4375 -3.328125 C 19.4375 -2.046875 19.320312 -0.9375 19.09375 0 L 9.96875 0 C 9.75 -0.9375 9.640625 -2.046875 9.640625 -3.328125 C 9.640625 -4.648438 9.75 -5.753906 9.96875 -6.640625 L 5.8125 -6.640625 C 5.59375 -7.585938 5.484375 -8.695312 5.484375 -9.96875 C 5.484375 -11.289062 5.59375 -12.394531 5.8125 -13.28125 L 3.328125 -13.28125 C 3.097656 -14.226562 2.984375 -15.335938 2.984375 -16.609375 C 2.984375 -17.941406 3.097656 -19.050781 3.328125 -19.9375 L 5.8125 -19.9375 C 5.59375 -20.875 5.484375 -21.976562 5.484375 -23.25 C 5.484375 -24.582031 5.59375 -25.691406 5.8125 -26.578125 L 9.96875 -26.578125 C 9.75 -27.515625 9.640625 -28.617188 9.640625 -29.890625 C 9.640625 -31.222656 9.75 -32.332031 9.96875 -33.21875 L 19.09375 -33.21875 C 19.320312 -32.332031 19.4375 -31.222656 19.4375 -29.890625 Z M 19.4375 -29.890625 "/></g></g></g><g fill="#ed4461" fill-opacity="1"><g transform="translate(1151.870971, 511.931463)"><g><path d="M 13.28125 -39.859375 C 13.0625 -40.804688 12.953125 -41.914062 12.953125 -43.1875 C 12.953125 -44.507812 13.0625 -45.613281 13.28125 -46.5 L 19.9375 -46.5 C 20.15625 -45.613281 20.265625 -44.507812 20.265625 -43.1875 C 20.265625 -41.914062 20.15625 -40.804688 19.9375 -39.859375 Z M 26.578125 -6.640625 C 26.796875 -5.753906 26.90625 -4.648438 26.90625 -3.328125 C 26.90625 -2.046875 26.796875 -0.9375 26.578125 0 L 6.640625 0 C 6.421875 -0.9375 6.3125 -2.046875 6.3125 -3.328125 C 6.3125 -4.648438 6.421875 -5.753906 6.640625 -6.640625 L 13.28125 -6.640625 C 13.0625 -7.585938 12.953125 -8.695312 12.953125 -9.96875 C 12.953125 -11.289062 13.0625 -12.394531 13.28125 -13.28125 C 13.0625 -14.226562 12.953125 -15.335938 12.953125 -16.609375 C 12.953125 -17.941406 13.0625 -19.050781 13.28125 -19.9375 C 13.0625 -20.875 12.953125 -21.976562 12.953125 -23.25 C 12.953125 -24.582031 13.0625 -25.691406 13.28125 -26.578125 L 8.3125 -26.578125 C 8.082031 -27.515625 7.96875 -28.617188 7.96875 -29.890625 C 7.96875 -31.222656 8.082031 -32.332031 8.3125 -33.21875 L 19.9375 -33.21875 C 20.15625 -32.332031 20.265625 -31.222656 20.265625 -29.890625 C 20.265625 -28.617188 20.15625 -27.515625 19.9375 -26.578125 C 20.15625 -25.691406 20.265625 -24.582031 20.265625 -23.25 C 20.265625 -21.976562 20.15625 -20.875 19.9375 -19.9375 C 20.15625 -19.050781 20.265625 -17.941406 20.265625 -16.609375 C 20.265625 -15.335938 20.15625 -14.226562 19.9375 -13.28125 C 20.15625 -12.394531 20.265625 -11.289062 20.265625 -9.96875 C 20.265625 -8.695312 20.15625 -7.585938 19.9375 -6.640625 Z M 26.578125 -6.640625 "/></g></g></g><g fill="#ed4461" fill-opacity="1"><g transform="translate(1185.091836, 511.931463)"><g><path d="M 9.46875 -29.890625 C 9.46875 -28.617188 9.359375 -27.515625 9.140625 -26.578125 L 12.453125 -26.578125 C 12.679688 -25.691406 12.796875 -24.582031 12.796875 -23.25 C 12.796875 -21.976562 12.679688 -20.875 12.453125 -19.9375 L 9.96875 -19.9375 C 10.1875 -19.050781 10.296875 -17.941406 10.296875 -16.609375 C 10.296875 -15.335938 10.1875 -14.226562 9.96875 -13.28125 C 10.1875 -12.394531 10.296875 -11.289062 10.296875 -9.96875 C 10.296875 -8.695312 10.1875 -7.585938 9.96875 -6.640625 C 10.1875 -5.753906 10.296875 -4.648438 10.296875 -3.328125 C 10.296875 -2.046875 10.1875 -0.9375 9.96875 0 L 3.328125 0 C 3.097656 -0.9375 2.984375 -2.046875 2.984375 -3.328125 C 2.984375 -4.648438 3.097656 -5.753906 3.328125 -6.640625 C 3.097656 -7.585938 2.984375 -8.695312 2.984375 -9.96875 C 2.984375 -11.289062 3.097656 -12.394531 3.328125 -13.28125 C 3.097656 -14.226562 2.984375 -15.335938 2.984375 -16.609375 C 2.984375 -17.941406 3.097656 -19.050781 3.328125 -19.9375 C 3.097656 -20.875 2.984375 -21.976562 2.984375 -23.25 C 2.984375 -24.582031 3.097656 -25.691406 3.328125 -26.578125 C 3.097656 -27.515625 2.984375 -28.617188 2.984375 -29.890625 C 2.984375 -31.222656 3.097656 -32.332031 3.328125 -33.21875 L 9.140625 -33.21875 C 9.359375 -32.332031 9.46875 -31.222656 9.46875 -29.890625 Z M 29.890625 -19.9375 C 30.117188 -19.050781 30.234375 -17.941406 30.234375 -16.609375 C 30.234375 -15.335938 30.117188 -14.226562 29.890625 -13.28125 C 30.117188 -12.394531 30.234375 -11.289062 30.234375 -9.96875 C 30.234375 -8.695312 30.117188 -7.585938 29.890625 -6.640625 C 30.117188 -5.753906 30.234375 -4.648438 30.234375 -3.328125 C 30.234375 -2.046875 30.117188 -0.9375 29.890625 0 L 23.25 0 C 23.03125 -0.9375 22.921875 -2.046875 22.921875 -3.328125 C 22.921875 -4.648438 23.03125 -5.753906 23.25 -6.640625 C 23.03125 -7.585938 22.921875 -8.695312 22.921875 -9.96875 C 22.921875 -11.289062 23.03125 -12.394531 23.25 -13.28125 C 23.03125 -14.226562 22.921875 -15.335938 22.921875 -16.609375 C 22.921875 -17.941406 23.03125 -19.050781 23.25 -19.9375 C 23.03125 -20.875 22.921875 -21.976562 22.921875 -23.25 C 22.921875 -24.582031 23.03125 -25.691406 23.25 -26.578125 L 12.453125 -26.578125 C 12.234375 -27.515625 12.125 -28.617188 12.125 -29.890625 C 12.125 -31.222656 12.234375 -32.332031 12.453125 -33.21875 L 25.75 -33.21875 C 25.96875 -32.332031 26.078125 -31.222656 26.078125 -29.890625 C 26.078125 -28.617188 25.96875 -27.515625 25.75 -26.578125 L 29.890625 -26.578125 C 30.117188 -25.691406 30.234375 -24.582031 30.234375 -23.25 C 30.234375 -21.976562 30.117188 -20.875 29.890625 -19.9375 Z M 29.890625 -19.9375 "/></g></g></g></svg>